<?xml version="1.0" encoding="utf-8"?>
<!-- Generator: Adobe Illustrator 19.2.1, SVG Export Plug-In . SVG Version: 6.00 Build 0)  -->
<svg version="1.1" id="Слой_1" xmlns="http://www.w3.org/2000/svg" xmlns:xlink="http://www.w3.org/1999/xlink" x="0px" y="0px"
	 viewBox="0 0 100 100" style="enable-background:new 0 0 100 100;" xml:space="preserve">
<style type="text/css">
	.st0{fill:#333333;}
	.st1{fill:#FFB759;}
</style>
<g>
	<path class="st0" d="M33.8,54.1c0,1.9,0,3.8,0,5.6c0,0.8-0.6,1.6-0.5,2.3c0.2,0.7,1.1,1.1,1.5,1.8c0.4,0.8,0.6,1.6,0.6,2.4
		c0,8.6,0,17.1,0,25.7c0,1.7-0.6,3.3-1.7,4.8c1.6,0,3,0,4.5,0c0.5,0,0.4-0.3,0.4-0.6c0-1.6,0-3.2,0-4.8c0-6.5,0-13,0-19.4
		c0-0.8,0.2-0.9,0.9-0.9c3.7,0,7.4,0,11.1,0c0.8,0,0.9,0.2,0.9,0.9c0,8,0,15.9,0,23.9c0,0.9,0.2,1,1,1c2.2-0.1,2.2,0,2.2-2.2
		c0-6.5,0-13,0-19.4c0-0.8,0.2-0.9,0.9-0.9c3.7,0,7.5,0,11.2,0c0.7,0,0.8,0.2,0.8,0.8c0,6.9,0,13.8,0,20.7c0,0.9,0.2,1,1,1
		c2.2-0.1,2.2,0,2.2-2.3c0-11.8,0-23.6,0-35.5c0-0.9,0.2-1,1-1c3.7,0,7.3,0,11,0c0.8,0,0.9,0.2,0.9,0.9c0,12.3,0,24.5,0,36.8
		c0,0.8,0.2,1,1,1c2.2-0.1,2.2,0,2.2-2.2c0-14,0-27.9,0-41.9c0-0.8,0.2-1,1-1c3.7,0.1,7.4,0,11.1,0c0.7,0,0.8,0.2,0.8,0.8
		c0,15.6,0,31.2,0,46.7c0,0.7-0.2,0.8-0.8,0.8c-23.9,0-47.9,0-71.8,0c-4.4,0-7.9-3.6-8-8c0-8.6,0-17.2,0-25.8c0-1.5,0.6-2.8,1.8-3.8
		c0.4-0.3,0.5-0.5,0.2-1c-0.5-1.1-0.4-2.2-0.4-3.4c0-1.3,0-2.7,0-4c1.1,0.2,2.1,0.4,3.2,0.6c0,1.6,0,3.2,0,4.8
		c0,1.2,0.6,1.8,1.8,1.8c0.9,0,1.8,0,2.7,0c1.3,0,1.9-0.6,1.9-1.9c0-1.6,0-3.2,0-4.7C31.7,54.5,32.8,54.3,33.8,54.1z M22.6,79.2
		c0,4.2,0,8.5,0,12.7c0,2.7,2.1,4.9,4.8,4.9c2.7,0,4.8-2.1,4.9-4.9c0-8.5,0-17,0-25.5c0-1.3-0.6-1.9-1.9-1.9c-1.9,0-3.8,0-5.7,0
		c-1.5,0-2,0.5-2,2.1C22.6,70.8,22.6,75,22.6,79.2z M90.3,75.7c0,6.7,0,13.5,0,20.2c0,0.7,0.2,0.8,0.8,0.8c1.6,0,3.3,0,4.9,0
		c0.6,0,0.7-0.2,0.7-0.7c0-13.5,0-27,0-40.5c0-0.6-0.1-0.7-0.7-0.7c-1.6,0-3.2,0.1-4.8,0c-0.8,0-0.9,0.2-0.9,0.9
		C90.3,62.4,90.3,69.1,90.3,75.7z M80.6,79c0-5.6,0-11.3,0-16.9c0-0.7-0.2-0.8-0.8-0.8c-1.6,0-3.3,0-4.9,0c-0.6,0-0.7,0.2-0.7,0.7
		c0,11.3,0,22.7,0,34c0,0.6,0.1,0.7,0.7,0.7c1.6,0,3.2-0.1,4.8,0c0.8,0,0.9-0.2,0.9-0.9C80.6,90.2,80.6,84.6,80.6,79z M48.4,85.5
		c0-3.5,0-7,0-10.5c0-0.7-0.2-0.8-0.8-0.8c-1.6,0-3.3,0-4.9,0c-0.6,0-0.7,0.2-0.7,0.7c0,7.1,0,14.1,0,21.2c0,0.6,0.2,0.7,0.7,0.7
		c1.6,0,3.3,0,4.9,0c0.7,0,0.8-0.2,0.8-0.8C48.4,92.5,48.4,89,48.4,85.5z M58,87.1c0,3,0,6,0,9c0,0.6,0.1,0.7,0.7,0.7
		c1.7,0,3.4,0,5,0c0.6,0,0.7-0.2,0.7-0.7c0-6,0-12,0-17.9c0-0.6-0.1-0.7-0.7-0.7c-1.6,0-3.3,0-4.9,0c-0.7,0-0.8,0.2-0.8,0.8
		C58.1,81.2,58,84.1,58,87.1z"/>
	<path class="st1" d="M33.8,54.1c-1.1,0.2-2.1,0.4-3.2,0.6c-2.1,0.2-4.3,0.2-6.4,0c-1.1-0.2-2.1-0.4-3.2-0.6
		C10.6,51.8,2,42.5,0.4,31.9C-1,22.4,1.7,14.3,8.5,7.7c4.4-4.3,9.8-6.8,16-7.5C38.3-1.3,51.6,8,54.3,22.4c1.6,8.5-0.6,16.2-6.1,22.9
		c-0.4,0.5-0.9,0.8-1.1,1.4c-1,0.5-1.6,1.4-2.4,2.1c-2.4,1.8-5,3.4-7.9,4.4C35.8,53.5,34.8,53.8,33.8,54.1z M27.4,6.5
		c-11.5,0-20.9,9.4-21,20.9c0,11.5,9.4,21,20.9,21c11.5,0,21-9.4,21-20.9C48.4,15.9,39,6.5,27.4,6.5z"/>
	<path class="st0" d="M63.9,55.9c3.4-3.6,6.7-7.2,10.1-10.8c0.2-0.2,0.3-0.4,0.3-0.7c-0.2-1.7-0.1-3.4-0.1-5c0-1.3-0.5-2.3-1.6-3.1
		c-5.1-3.6-7.3-8.6-6.1-14.8c1.2-6.1,5.1-10,11.2-11.4c8-1.9,16.2,3.8,17.3,12c0.8,6-1.4,10.7-6.2,14.2C87.6,37.1,87,38,87,39.4
		c0,1.4,0,2.8,0,4.2c0,2.7-2.1,4.7-4.8,4.8c-1.1,0-2.1,0-3.2,0c-0.5,0-1.1,0-1.5-0.3c-1.2-0.9-1.9-0.1-2.7,0.7
		c-2.8,3.1-5.7,6.2-8.6,9.3C65.5,57.4,64.7,56.7,63.9,55.9z M82.2,33.7c0,1.5,0,3,0,4.4c0,0.3-0.1,0.7,0.4,0.6
		c0.4-0.1,1.1,0.4,1.2-0.4c0.3-2.4,1.8-3.9,3.6-5.3c3.5-2.7,4.9-6.3,4.2-10.6c-0.8-5.1-5-9-10.1-9.5c-5.1-0.5-9.9,2.6-11.7,7.4
		c-1.7,4.8,0,10.2,4.2,13.1c1.7,1.2,2.8,2.7,3.1,4.7c0.1,0.9,0.8,0.5,1.2,0.5c0.6,0.1,0.5-0.4,0.5-0.7c0-2.9,0-5.7,0-8.6
		c0-0.5-0.2-0.7-0.6-1c-2-1-3-3.2-2.5-5.2c0.5-2.3,2.4-3.8,4.6-3.9c2.2,0,4.2,1.4,4.8,3.6c0.6,2.2-0.3,4.4-2.5,5.5
		c-0.4,0.2-0.6,0.5-0.6,1C82.2,30.9,82.2,32.3,82.2,33.7z M80.6,45.2c2.9,0,3.4-0.4,3.2-2.7c0-0.5-0.2-0.5-0.6-0.5
		c-1.8,0-3.5,0-5.3,0c-0.4,0-0.6,0.1-0.6,0.6c-0.1,1.8,0.2,2.8,2.5,2.7C80.1,45.2,80.4,45.2,80.6,45.2z M82.2,24.2
		c0-0.9-0.7-1.6-1.6-1.6c-0.9,0-1.6,0.8-1.6,1.7c0,0.9,0.8,1.6,1.7,1.5C81.5,25.8,82.2,25.1,82.2,24.2z"/>
	<path class="st1" d="M63.9,55.9c0.8,0.7,1.6,1.5,2.4,2.2c1.2,2,1.8,4.1,1.3,6.5c-0.8,3.6-4.1,6.3-7.9,6.3c-3.7,0-7.1-2.7-7.9-6.2
		c-0.5-2.4,0.1-4.6,1.3-6.6c0.8-0.7,1.6-1.5,2.4-2.2c1.3-0.5,2.5-1,3.9-1.1C61,54.8,62.4,55.3,63.9,55.9z"/>
	<path class="st0" d="M55.5,55.9c-0.8,0.7-1.6,1.5-2.4,2.2c-2.8-3.1-5.6-6.2-8.4-9.3c0.8-0.7,1.5-1.6,2.4-2.1
		C49.9,49.8,52.7,52.8,55.5,55.9z"/>
	<path class="st0" d="M68.9,10.3c-0.4,0.4-0.8,0.7-1.2,1c-1.2,1.1-1.2,1.2-2.3,0c-1.1-1.1-2.1-2.1-3.2-3.2c-0.4-0.4-0.4-0.6,0-1
		c1.8-1.8,1.8-1.8,3.6,0c0.9,0.9,1.7,1.7,2.6,2.6C68.5,9.8,68.6,10,68.9,10.3z"/>
	<path class="st0" d="M94.5,12.5c-0.3-0.4-0.7-0.8-1-1.2c-1.1-1.2-1.2-1.2,0-2.3c1.1-1.1,2.1-2.1,3.2-3.2c0.4-0.4,0.6-0.4,1,0
		c1.8,1.8,1.8,1.8,0,3.6c-0.9,0.9-1.7,1.7-2.6,2.6C95,12.1,94.8,12.3,94.5,12.5z"/>
	<path class="st0" d="M82.2,3.4c0,0.3,0,0.5,0,0.8c0,2.5-0.2,2.7-2.8,2.3C79,6.5,79,6.3,79,6c0-1.8,0-3.6,0-5.4
		c0-0.5,0.2-0.5,0.6-0.5c2.6-0.1,2.6-0.1,2.6,2.5C82.2,2.8,82.2,3.1,82.2,3.4z"/>
	<path class="st0" d="M27.4,6.5c11.6,0,21,9.4,21,21c0,11.5-9.5,20.9-21,20.9c-11.5,0-20.9-9.5-20.9-21C6.5,15.9,15.9,6.5,27.4,6.5z
		 M42.6,36.5c4.6-7.4,2.8-17.2-4-22.8c-7-5.7-16.8-5.3-23.4,0.9c-6.3,6-7.1,15.4-2.9,21.8c1.8-4.6,5-7.8,9.6-9.6
		c-3.7-4-2.7-8.8-0.2-11.4c2.9-3,7.6-3.3,10.9-0.7c1.7,1.3,2.7,3.1,2.9,5.2c0.4,2.6-0.6,4.9-2.4,6.9C37.6,28.7,40.8,31.9,42.6,36.5z
		 M25.8,40.3c0-1.4,0-2.7,0-4.1c0-0.5-0.1-0.7-0.6-0.9c-1.9-0.6-3.5-1.7-4.5-3.4c-0.3-0.5-0.5-0.5-0.9-0.2c-2.5,2-4.2,4.5-4.9,7.6
		c-0.1,0.4-0.1,0.6,0.2,0.9c2.8,2.7,6.1,4.3,10,4.9c0.7,0.1,0.8-0.1,0.7-0.7C25.8,43,25.8,41.6,25.8,40.3z M34.6,31.3
		c-1.2,2-2.8,3.5-5.1,4C29,35.4,29,35.8,29,36.1c0,2.7,0,5.5,0,8.2c0,0.6,0.1,0.7,0.7,0.6c3.9-0.5,7.2-2.2,10-4.9
		c0.2-0.2,0.4-0.4,0.3-0.8C39.3,36,37.5,33.2,34.6,31.3z M27.4,25.8c2.7,0,4.9-2.1,4.9-4.8c0-2.7-2.2-4.9-4.8-4.9
		c-2.6,0-4.8,2.1-4.8,4.8C22.5,23.6,24.7,25.8,27.4,25.8z M31.7,29.8c-2.7-0.9-5.3-1-8-0.2c-0.5,0.1-0.5,0.3-0.3,0.7
		c1,1.4,2.4,2.2,4.1,2.1C29.4,32.3,30.7,31.4,31.7,29.8z"/>
</g>
</svg>
