<?xml version="1.0" encoding="utf-8"?>
<!-- Generator: Adobe Illustrator 19.2.1, SVG Export Plug-In . SVG Version: 6.00 Build 0)  -->
<svg version="1.1" id="Слой_1" xmlns="http://www.w3.org/2000/svg" xmlns:xlink="http://www.w3.org/1999/xlink" x="0px" y="0px"
	 viewBox="0 0 80 80" style="enable-background:new 0 0 80 80;" xml:space="preserve">
<style type="text/css">
	.st0{fill:#333333;}
	.st1{fill:#FFB759;}
</style>
<g>
	<path class="st0" d="M41.3,74.8c0,0.9,0,1.7,0,2.6c-4.4,0.2-8.6-0.5-12.9-1.8c0,1.3,0,2.6,0,3.8c0,0.5-0.1,0.6-0.6,0.6
		c-7.3,0-14.7,0-22,0c-0.6,0-0.6-0.2-0.6-0.7c0-6.8,0-13.5,0-20.3c0-0.5-0.1-0.9-0.3-1.4c-1.5-4-2.9-7.9-4.3-11.9
		C-0.3,43-0.3,40.4,1.2,38c1.1-1.8,1.5-3.5,1.7-5.5C3,30,3.9,27.8,5.4,25.8c2.3-3,4.8-6,7.2-9c0.3-0.4,0.4-0.7,0.4-1.2
		c0.3-2.5-0.3-4.9-1.6-7c-0.2-0.4-0.3-0.8-0.6-1.1c-0.6-0.8-0.4-1.5,0.1-2.2c1-1.3,2.2-2.3,3.9-2.5c0.7-0.1,0.9-0.4,0.8-1.1
		C15.5,0,15.5,0,17.2,0c3.1,0.1,6.2,0.4,9,1.7c0.3,0.2,0.7,0.3,1,0.5c0.7,0.5,1.6,0.9,1.2,2.1c2.5-0.8,4.9-1.3,7.4-1.6
		c1.7-0.2,3.4-0.3,5.1-0.3c0.4,0,0.5,0.1,0.5,0.5c0,3.1,0,6.2,0,9.3c0,0.6-0.3,0.6-0.7,0.6c-3.8-0.1-7.5,0.6-11,2.1
		c-1,0.4-2,0.9-3,1.5c-0.4,0.2-0.4,0.4-0.1,0.7c1.4,1.7,2.8,3.5,4.2,5.3c0.3,0.4,0.6,0.3,0.9,0.1c6.5-3,12.9-2.7,18.9,1.3
		c6.2,4.1,9,10,8.7,17.4c-0.9,0-1.7,0-2.6,0c0.1-1.6,0-3.3-0.4-4.9c-1.7-7.3-7.7-12.5-15.1-13.1c-3-0.2-5.8,0.3-8.5,1.6
		c0.1,0.2,0.3,0.3,0.4,0.5c4.6,6.3,4,14.2-1.7,19.7c-0.3,0.3-0.4,0.7-0.4,1.1c0,2.3,0.2,4.6-0.4,6.9c-0.1,0.5,0,0.8,0.4,1
		c3.1,2,6.6,2.8,10.3,2.6c0,0.9,0,1.7,0,2.6c-4,0.2-7.8-0.7-11.3-2.8c-0.3-0.2-0.4-0.2-0.6,0.2c-0.7,1.1-1.1,2.3-1,3.6
		c0.1,1.1,0.1,2.3,0,3.5c0,0.6,0.2,0.8,0.7,1c3.9,1.7,8,2.5,12.2,2.3c0,0.9,0,1.7,0,2.6c-4.2,0.2-8.3-0.5-12.2-2.1
		c-0.5-0.2-0.7-0.2-0.7,0.5c0,1.4,0.1,2.7,0,4.1c0,0.6,0.2,0.8,0.7,0.9C33.1,74.3,37.1,74.9,41.3,74.8z M6.5,29.1
		c0.6-0.2,0.9-0.4,1.4-0.6c0.5-0.2,1-0.1,1.4,0c2.8,0.6,4.2,3.1,3.4,6.1c-0.6,2.2-1.2,4.4-1.9,6.6c-0.2,0.5-0.1,0.8,0.4,1.1
		c1.1,0.8,2.1,1.8,2.8,3c0.3,0.6,0.8,0.8,1.5,0.9c2.2,0.3,4.3,0.2,6.5,0.1c4.7-0.2,8.3-2.5,10.4-6.7c2.1-4.3,1.8-8.6-1.1-12.4
		c-2.2-3-4.7-5.9-7-8.8c-0.2-0.3-0.4-0.3-0.7-0.3c-2.7,0-5.4,0-8.1,0c-0.3,0-0.5,0.1-0.7,0.3c-2.3,3-4.7,5.9-7.1,8.9
		C7.1,27.8,6.8,28.3,6.5,29.1z M16.9,59.3c-2.8,0-5.6,0-8.5,0c-0.5,0-0.7,0.1-0.7,0.7c0,5.6,0,11.2,0,16.8c0,0.5,0.1,0.7,0.7,0.7
		c5.6,0,11.2,0,16.8,0c0.5,0,0.7-0.1,0.7-0.7c0-5.6,0-11.2,0-16.8c0-0.5-0.1-0.7-0.7-0.7C22.4,59.3,19.7,59.3,16.9,59.3z M28.4,47.3
		c-1.3,0.7-2.5,1.1-3.8,1.4c-2.5,0.5-5,0.2-7.5,0.3c-0.5,0-1.3-0.3-1.6,0c-0.4,0.3,0,1,0,1.6c0,1,0,1-1,1c-0.4,0-0.8,0-1.1,0
		c-0.4,0-0.5-0.1-0.5-0.5c0-3.5-1.7-6-4.7-7.5c-0.6-0.3-0.6-0.5-0.4-1.1c0.9-2.9,1.7-5.9,2.5-8.8c0.3-1.3-0.1-2.2-1.1-2.6
		c-0.4-0.2-0.7-0.1-0.9,0.3c-1.5,2.4-3,4.8-4.5,7.2c-1.3,2-1.5,4.2-0.6,6.5c1.4,3.7,2.7,7.4,4,11.1c0.2,0.5,0.4,0.6,0.9,0.6
		c5.9,0,11.8,0,17.7,0c0.5,0,0.7-0.2,1-0.6C28.2,53.4,28.6,50.5,28.4,47.3z M25.9,13.8c0.1,0,0.2,0,0.2,0c3.8-2,7.8-3.2,12.1-3.4
		c0.4,0,0.6-0.1,0.6-0.6c0-1.3,0-2.7,0-4c0-0.4-0.1-0.6-0.6-0.6c-3.3,0.2-6.5,0.9-9.7,1.9c-0.4,0.1-0.6,0.4-0.7,0.8
		c-0.3,1.1-0.7,2.2-1.4,3.1C25.8,11.9,25.8,12.9,25.9,13.8z M22,10.3c0.3,0,0.7,0,1,0c0.7,0.1,1.1-0.2,1.4-0.8
		c0.7-1.4,1.2-2.8,1.4-4.4c0.1-0.5,0-0.7-0.5-0.9c-2.1-1.1-4.4-1.4-6.7-1.6c-0.4,0-0.4,0.2-0.4,0.5c0.2,1.9,0.6,3.7,1.3,5.5
		C20.1,10.3,20.1,10.3,22,10.3z M19.4,15.5c0.6,0,1.3,0,1.9,0c2,0,2,0,2-2.1c0-0.5-0.2-0.5-0.6-0.5c-1.7,0-3.5,0-5.2,0c-2,0-2,0-2,2
		c0,0.5,0.2,0.6,0.6,0.6C17.2,15.5,18.3,15.5,19.4,15.5z M17.3,10.2c-0.2-0.6-0.5-1.3-0.7-1.9c-0.2-0.7-0.4-1.4-0.6-2.1
		c-0.3-1.1-0.4-1.2-1.4-0.8c-0.2,0.1-0.5,0.2-0.7,0.4c-0.6,0.4-0.9,0.8-0.4,1.5c0.3,0.4,0.5,0.8,0.6,1.2
		C14.6,10.2,15.6,10.7,17.3,10.2z M6.6,28.9C6.5,29,6.4,29,6.4,29.1c0.1,0,0.1,0.1,0.2,0.1c0,0,0.1,0,0.1-0.1
		C6.7,29.1,6.6,29,6.6,28.9z"/>
	<path class="st0" d="M46.5,3.2c4.1,0.7,8,2.1,11.7,4.2c7.7,4.3,13.1,10.6,16.5,18.8c0.2,0.6,0.2,0.8-0.4,1.1
		c-2.7,1.1-5.4,2.2-8.1,3.3c-0.7,0.3-0.8,0.1-1-0.5c-2.4-5.8-6.2-10.4-11.7-13.6c-2.7-1.6-5.6-2.6-8.7-3.2c-0.6-0.1-0.8-0.2-0.6-0.9
		c0.6-2.9,1.2-5.9,1.8-8.8C46,3.4,45.9,3,46.5,3.2z M48.1,6.2c-0.2,0-0.1,0.3-0.2,0.5c-0.3,1.3-0.5,2.7-0.8,4
		c-0.1,0.3-0.1,0.5,0.4,0.6c0.8,0.2,1.5,0.4,2.2,0.7c0.3,0.1,0.5,0.1,0.6-0.2c0.5-1.3,1.1-2.7,1.6-4c0.1-0.2,0.3-0.3,0-0.5
		C50.7,6.9,49.5,6.5,48.1,6.2z M58.2,10.5c0-0.2-0.2-0.2-0.3-0.3c-1-0.5-2-1-3-1.6c-0.4-0.2-0.5-0.1-0.6,0.3
		c-0.3,0.9-0.7,1.8-1.1,2.7c-0.7,1.6-0.6,1.6,0.8,2.4c0.3,0.2,0.6,0.3,0.9,0.5c0.3,0.2,0.5,0.2,0.8-0.2c0.8-1.2,1.5-2.3,2.3-3.5
		C58.1,10.6,58.1,10.6,58.2,10.5z M71.6,25.4c0-0.1,0-0.1-0.1-0.1c-0.6-1.1-1.2-2.2-1.7-3.2c-0.1-0.3-0.3-0.1-0.4,0
		c-1.2,0.8-2.4,1.6-3.7,2.4c-0.3,0.2-0.2,0.3-0.1,0.6c0.4,0.7,0.8,1.4,1.1,2.1c0.1,0.3,0.2,0.3,0.5,0.2c1.3-0.6,2.7-1.1,4-1.7
		C71.4,25.6,71.6,25.6,71.6,25.4z M63.7,14.4c-0.1-0.1-0.2-0.1-0.3-0.2c-0.9-0.7-1.8-1.5-2.7-2.2c-0.3-0.2-0.4-0.1-0.5,0.1
		c-0.8,1.2-1.6,2.4-2.4,3.6c-0.2,0.3-0.1,0.4,0.1,0.6c0.6,0.5,1.3,1,1.9,1.5c0.3,0.2,0.4,0.2,0.6,0c1-1,2-2,3-3
		C63.5,14.7,63.6,14.6,63.7,14.4z M68.2,19.6c-0.1-0.1-0.1-0.2-0.2-0.3c-0.7-0.9-1.5-1.8-2.2-2.7c-0.3-0.3-0.4-0.1-0.6,0.1
		c-1,1-2,2-3,3c-0.2,0.2-0.3,0.4,0,0.6c0.5,0.6,1,1.2,1.5,1.8c0.2,0.3,0.4,0.3,0.7,0.1c1.1-0.8,2.3-1.6,3.5-2.3
		C67.9,19.8,68,19.7,68.2,19.6z"/>
	<path class="st0" d="M69.6,41.3c-0.9,0-1.7,0-2.6,0c0.1-2.4-0.1-4.7-0.6-7c-0.2-0.7,0.1-0.9,0.7-1c2.9-0.6,5.8-1.1,8.8-1.7
		c0.5-0.1,0.6,0,0.7,0.5c0.6,3.1,0.9,6.2,0.8,9.3c-0.9,0-1.7,0-2.6,0c0.1-2.1-0.1-4.1-0.3-6.2c-0.1-0.5-0.2-0.6-0.7-0.5
		c-1.3,0.3-2.6,0.5-3.9,0.8c-0.4,0.1-0.6,0.2-0.6,0.7C69.7,37.8,69.7,39.5,69.6,41.3z"/>
	<path class="st0" d="M48.7,66.6c-0.3-0.2-0.6-0.5-0.8-0.7c-1.1-0.9-1.1-0.9-0.2-1.9c4.7-5.5,9.4-11,14.1-16.4
		c0.4-0.4,0.6-0.6,1.1-0.1c0.4,0.4,1.2,0.8,1.2,1.2c0.1,0.5-0.7,1-1,1.4c-4.6,5.4-9.2,10.7-13.8,16.1C49.1,66.2,49,66.5,48.7,66.6z"
		/>
	<path class="st0" d="M54.2,50.3c0,2.1-1.7,3.9-3.9,3.9c-2.1,0-3.9-1.8-3.8-3.9c0-2.1,1.7-3.8,3.8-3.8
		C52.5,46.4,54.2,48.2,54.2,50.3z M50.3,49c-0.7,0-1.3,0.6-1.3,1.3c0,0.7,0.6,1.3,1.2,1.3c0.7,0,1.3-0.6,1.3-1.3
		C51.6,49.6,51,49,50.3,49z"/>
	<path class="st0" d="M64.5,63.2c0,2.1-1.7,3.9-3.9,3.9c-2.1,0-3.8-1.7-3.9-3.8c0-2.1,1.7-3.9,3.8-3.9
		C62.8,59.3,64.5,61.1,64.5,63.2z M61.9,63.2c0-0.7-0.6-1.3-1.3-1.3c-0.7,0-1.3,0.6-1.3,1.3c0,0.7,0.6,1.3,1.3,1.3
		C61.4,64.5,61.9,63.9,61.9,63.2z"/>
	<g>
		<path class="st1" d="M77.4,41.3c0.6,0,1.2,0.1,1.8,0c0.6,0,0.8,0.1,0.8,0.7c0,5-0.8,9.9-2.8,14.6C72.4,68,63.9,75.4,52,78.8
			C48.8,79.7,45.4,80,42,80c-0.6,0-0.8-0.2-0.7-0.8c0-0.6,0-1.2,0-1.8c0-0.9,0-1.7,0-2.6c0-1.7,0-3.4,0-5.2c0-0.9,0-1.7,0-2.6
			c0-2.6,0-5.2,0-7.7c0-0.9,0-1.7,0-2.6c0-4.9,0-9.7,0-14.6c0-0.7,0.2-0.9,0.9-0.9c4.9,0,9.7,0,14.6,0c0.9,0,1.7,0,2.6,0
			c2.6,0,5.2,0,7.7,0c0.9,0,1.7,0,2.6,0c1.7,0,3.4,0,5.2,0C75.7,41.3,76.5,41.3,77.4,41.3z M48.7,66.6c0.3-0.1,0.4-0.3,0.5-0.5
			C53.8,60.7,58.4,55.3,63,50c0.4-0.5,1.1-0.9,1-1.4c-0.1-0.4-0.8-0.8-1.2-1.2c-0.5-0.5-0.7-0.3-1.1,0.1c-4.7,5.5-9.4,11-14.1,16.4
			c-0.9,1-0.9,1,0.2,1.9C48.1,66.1,48.4,66.3,48.7,66.6z M54.2,50.3c0-2.1-1.7-3.9-3.9-3.9c-2.1,0-3.8,1.7-3.8,3.8
			c0,2.1,1.7,3.9,3.8,3.9C52.5,54.2,54.2,52.4,54.2,50.3z M64.5,63.2c0-2.1-1.8-3.9-3.9-3.9c-2.1,0-3.9,1.8-3.8,3.9
			c0,2.1,1.8,3.8,3.9,3.8C62.8,67.1,64.5,65.3,64.5,63.2z"/>
		<path class="st1" d="M50.3,49c0.7,0,1.3,0.6,1.3,1.3c0,0.7-0.6,1.3-1.3,1.3c-0.7,0-1.3-0.6-1.2-1.3C49.1,49.6,49.6,49,50.3,49z"/>
		<path class="st1" d="M61.9,63.2c0,0.7-0.6,1.3-1.3,1.3c-0.7,0-1.3-0.6-1.3-1.3c0-0.7,0.6-1.3,1.3-1.3
			C61.4,61.9,61.9,62.5,61.9,63.2z"/>
	</g>
	<path class="st0" d="M20.7,24.9c-0.2,0.7,0.1,1.2,0.9,1.7c1.5,0.9,1.7,2.5,1.6,4.1c0,0.2-0.1,0.3-0.3,0.3c-0.3,0-0.5,0-0.8,0
		c-0.5,0-1,0.2-1.3-0.1c-0.4-0.2-0.1-0.8-0.1-1.3c-0.1-1-1.6-1.7-2.5-1.2c0,0-0.1,0.1-0.1,0.1c-0.5,0.8,0.2,2.3,1.2,2.5
		c2.6,0.3,3.9,1.7,3.9,4.3c0,0.9,0,1.8,0,2.7c0,0.6-0.2,0.7-0.7,0.7c-0.4,0-0.9,0-1.3,0c-0.5-0.1-0.6,0.2-0.6,0.6
		c0,0.6,0.3,1.5-0.1,1.8c-0.4,0.3-1.3,0.1-1.9,0.1c-0.4,0-0.6-0.1-0.5-0.5c0-0.2,0-0.3,0-0.5c0.1-1,0-1.8-1.1-2.5
		c-1.4-0.8-1.6-2.4-1.5-3.9c0-0.2,0.1-0.3,0.3-0.3c0.2,0,0.5,0,0.7,0c0.5,0,1.1-0.1,1.4,0.1c0.3,0.2,0.1,0.8,0.1,1.3
		c0.1,0.5,0.3,0.9,0.8,1.1c0.5,0.2,1.2,0.3,1.6,0c0.4-0.3,0.2-1,0.1-1.5c-0.1-0.5-0.5-0.9-1.1-1c-0.3,0-0.6,0-0.9-0.1
		c-1.9-0.4-3.1-1.9-3.2-3.8c0-1.1,0-2.2,0-3.3c0-0.4,0-0.6,0.5-0.6c0.7,0,1.6,0.3,2-0.1c0.3-0.4,0.1-1.3,0.1-1.9
		c0-0.4,0.1-0.5,0.5-0.5c0.2,0,0.4,0,0.6,0C20.7,23.2,20.7,23.2,20.7,24.9z"/>
</g>
</svg>
