<?xml version="1.0" encoding="utf-8"?>
<!-- Generator: Adobe Illustrator 19.2.1, SVG Export Plug-In . SVG Version: 6.00 Build 0)  -->
<svg version="1.1" id="Слой_1" xmlns="http://www.w3.org/2000/svg" xmlns:xlink="http://www.w3.org/1999/xlink" x="0px" y="0px"
	 viewBox="0 0 100 100" style="enable-background:new 0 0 100 100;" xml:space="preserve">
<style type="text/css">
	.st0{fill:#333333;}
	.st1{fill:#FFB759;}
</style>
<g>
	<path class="st0" d="M61.3,47.2c0,3.4,0,6.7,0,10c0,0.8,0.3,0.8,0.9,0.8c10.8,0,21.6,0,32.4,0c3.6,0,5.5,1.9,5.5,5.5
		c0,6.1,0,12.2,0,18.3c0,3.2-2,5.2-5.2,5.2c-10.8,0-21.6,0-32.5,0c-0.8,0-1.1,0.1-1.1,1c0,1.8,0.2,3.6-0.1,5.4
		c-0.7,3.7-4,6.5-7.8,6.5c-15.1,0-30.2,0-45.4,0c-4.4,0-8-3.6-8-8C0,64,0,36,0,8C0,3.6,3.6,0,8,0c15.1,0,30.2,0,45.4,0
		c4.4,0,7.9,3.6,7.9,8c0,2,0,4,0,6.1C66.2,10.5,71.6,9,77.5,10c6,1,10.7,4,14.1,9c5.6,8.3,4.6,18.9-2.4,26.3
		C83.1,51.7,71.6,54.7,61.3,47.2z M9.7,46.8c0,9.9,0,19.8,0,29.7c0,0.7,0.2,0.9,0.9,0.9c11.2,0,22.4,0,33.7,0c0.7,0,1-0.1,0.9-0.9
		c0-4.4,0-8.7,0-13.1c0-3.4,1.9-5.4,5.4-5.3c0.8,0,1.1-0.1,1.1-1.1c0-13.3,0-26.6,0-39.9c0-0.9-0.3-1-1.1-1c-13.3,0-26.6,0-39.9,0
		c-0.9,0-1,0.2-1,1C9.7,27,9.7,36.9,9.7,46.8z M3.2,50c0,13.9,0,27.8,0,41.7c0,2.9,2,5.1,4.9,5.1c15,0,30.1,0,45.1,0
		c2.7,0,4.8-2.1,4.8-4.8c0-1.4,0-2.8,0-4.1c0-0.6-0.2-0.8-0.8-0.8c-2.2,0-4.4,0-6.7,0c-3.6,0-5.5-1.9-5.5-5.4c0-0.9-0.2-1-1-1
		c-11.3,0-22.6,0-33.9,0c-2.6,0-3.8-1.2-3.8-3.8c0-20.1,0-40.1,0-60.2c0-2.6,1.2-3.8,3.7-3.8c13.6,0,27.2,0,40.8,0
		c2.6,0,3.8,1.2,3.8,3.8c0,13,0,26,0,39c0,2.4,0,2.3,2.4,2.4c0.7,0,0.9-0.2,0.9-0.9c0-16.3,0-32.6,0-48.9c0-3-2-5.1-5-5.1
		c-3.1,0-6.2,0-9.3,0c-0.6,0-0.9,0.2-1.2,0.8c-0.8,1.7-1.7,3.4-2.5,5.1c-0.2,0.4-0.4,0.6-0.9,0.6c-5.6,0-11.2,0-16.8,0
		c-0.5,0-0.8-0.2-1-0.6c-0.8-1.7-1.7-3.3-2.4-5c-0.3-0.7-0.7-0.9-1.4-0.9c-2.9,0-5.8,0-8.8,0c-3.5,0-5.4,1.9-5.4,5.4
		C3.2,22.4,3.2,36.2,3.2,50z M72.5,83.9c7.4,0,14.8,0,22.2,0c1.6,0,2.1-0.5,2.1-2.1c0-6.1,0-12.2,0-18.3c0-1.6-0.5-2.1-2.2-2.1
		c-14.7,0-29.4,0-44,0c-1.7,0-2.2,0.5-2.2,2.1c0,6.1,0,12.2,0,18.3c0,1.6,0.5,2.1,2.1,2.1C57.8,83.9,65.2,83.9,72.5,83.9z M74.1,29
		c1.9,0,3.8,0,5.7,0c0.7,0,0.8-0.2,0.7-0.8c-0.2-1.6-0.3-3.3-0.6-4.9c-0.1-0.6-0.3-0.8-1-0.8c-3.3,0-6.5,0-9.8,0
		c-0.6,0-0.9,0.2-1,0.8c-0.2,1.6-0.4,3.3-0.6,4.9c-0.1,0.6,0.1,0.8,0.7,0.8C70.4,29,72.3,29,74.1,29z M74.2,32.3c-1.9,0-3.8,0-5.7,0
		c-0.7,0-0.8,0.2-0.7,0.8c0.2,1.6,0.3,3.3,0.6,4.9c0.1,0.6,0.3,0.8,1,0.8c3.3,0,6.5,0,9.8,0c0.6,0,0.9-0.2,1-0.8
		c0.3-1.6,0.4-3.3,0.6-4.9c0.1-0.6-0.1-0.8-0.7-0.8C78,32.3,76.1,32.3,74.2,32.3z M22,3.3c0.5,1,1,1.8,1.4,2.7
		c0.2,0.4,0.4,0.5,0.8,0.5c4.4,0,8.7,0,13.1,0c0.3,0,0.6,0,0.7-0.4c0.4-0.9,0.9-1.8,1.4-2.8C33.5,3.3,27.8,3.3,22,3.3z M87.8,29
		c1.1,0,2.3,0,3.4,0c0.5,0,0.6-0.1,0.5-0.6c-0.2-1.9-0.8-3.6-1.6-5.4c-0.2-0.4-0.5-0.5-0.9-0.5c-1.8,0-3.6,0-5.4,0
		c-0.6,0-0.8,0.1-0.6,0.7c0.3,1.7,0.4,3.4,0.5,5.1c0,0.6,0.3,0.7,0.8,0.7C85.7,29,86.7,29,87.8,29z M87.8,32.3c-1.1,0-2.3,0-3.4,0
		c-0.4,0-0.6,0.1-0.6,0.6c-0.1,1.8-0.2,3.5-0.5,5.3c-0.1,0.5,0,0.6,0.5,0.6c1.9,0,3.8,0,5.6,0c0.4,0,0.6-0.1,0.8-0.5
		c0.8-1.7,1.3-3.4,1.6-5.2c0.1-0.6,0-0.9-0.7-0.8C90,32.3,88.9,32.3,87.8,32.3z M79,19.3c-0.6-1.8-1.3-3.5-2.5-5
		c-1.6-1.9-3.1-1.9-4.7,0c-1.2,1.4-1.9,3.1-2.4,4.9C72.6,19.3,75.8,19.3,79,19.3z M79,42c-3.3,0-6.4,0-9.6,0
		c0.6,1.9,1.3,3.6,2.6,5.1c1.5,1.7,2.9,1.7,4.5,0C77.7,45.6,78.4,43.9,79,42z M63.2,22.6C63.2,22.6,63.2,22.6,63.2,22.6
		c-0.3,0-0.7,0.1-1,0c-0.7-0.1-1,0.1-0.9,0.9c0.1,1,0,2.1,0,3.1c0,2.6,0,2.6,2.7,2.5c0.5,0,0.6-0.2,0.6-0.6c0.1-1.3,0.2-2.7,0.3-4
		c0-0.6,0.5-1.4,0.1-1.7C64.7,22.4,63.9,22.6,63.2,22.6z M65.2,38.7c-0.2-1.4-0.3-2.7-0.4-4c-0.2-2.7-0.2-2.7-2.9-2.5
		c-0.5,0-0.5,0.2-0.5,0.6c0,1.8,0,3.5,0,5.3c0,0.5,0.1,0.6,0.6,0.6C62.9,38.7,64,38.7,65.2,38.7z M80.1,14c1,1.6,1.6,3.2,2.1,4.7
		c0.1,0.3,0.1,0.7,0.7,0.7c1.6,0,3.2,0,5,0C85.7,16.9,83.3,15.2,80.1,14z M80.1,47.3c3.1-1.2,5.6-2.9,7.7-5.4c-1.7,0-3.1,0-4.6,0
		c-0.6,0-0.9,0.1-1.1,0.8C81.7,44.3,81.1,45.7,80.1,47.3z M68.1,14c-0.8,0.4-1.3,0.6-1.9,0.8c-1.7,0.9-3.2,2-4.6,3.3
		c-0.3,0.3-0.4,0.6-0.3,1c0.1,0.5,0.6,0.2,0.8,0.2c1.1,0,2.1,0,3.2,0c0.3,0,0.6,0.1,0.7-0.3C66.5,17.4,67.2,15.8,68.1,14z
		 M68.2,47.3c-0.9-1.8-1.6-3.3-2.1-5c-0.1-0.4-0.4-0.4-0.7-0.4c-1.1,0-2.2,0-3.3,0c-0.3,0-0.6-0.2-0.8,0.2c-0.1,0.3,0,0.6,0.2,0.9
		C63.4,44.9,65.4,46.3,68.2,47.3z"/>
	<path class="st0" d="M27.4,71c-3.5,0-7,0-10.5,0c-0.7,0-0.8-0.2-0.8-0.8c0-4.8,0-9.7,0-14.5c0-0.7,0.2-0.8,0.8-0.8c7,0,14,0,21,0
		c0.7,0,0.8,0.2,0.8,0.8c0,4.8,0,9.7,0,14.5c0,0.7-0.2,0.8-0.8,0.8C34.4,70.9,30.9,71,27.4,71z M27.3,58.1c-2.4,0-4.8,0-7.3,0
		c-0.6,0-0.7,0.1-0.7,0.7c0,2.8,0,5.5,0,8.3c0,0.6,0.1,0.7,0.7,0.7c4.9,0,9.8,0,14.7,0c0.6,0,0.7-0.1,0.7-0.7c0-2.8,0-5.5,0-8.3
		c0-0.7-0.3-0.7-0.8-0.7C32.2,58.1,29.8,58.1,27.3,58.1z"/>
	<path class="st0" d="M30.6,93.5c-2.6,0-5.1,0-7.7,0c-2.3,0-3.6-1.3-3.6-3.6c0-1,0-1.9,0-2.9c0-1.8,1.4-3.1,3.1-3.2
		c5.4,0,10.9,0,16.3,0c1.8,0,3.1,1.4,3.1,3.2c0,1.1,0,2.2,0,3.3c0,1.8-1.4,3.1-3.2,3.2C36,93.6,33.3,93.5,30.6,93.5z M30.6,90.3
		c1.9,0,3.8,0,5.6,0c2.5,0,2.4,0,2.4-2.4c0-0.7-0.2-0.8-0.8-0.8c-4.3,0-8.6,0-12.9,0c-2.5,0-2.5,0-2.4,2.5c0,0.6,0.2,0.7,0.7,0.7
		C25.7,90.3,28.2,90.3,30.6,90.3z"/>
	<path class="st0" d="M71,69.3c0,2.2,0,4.3,0,6.5c0,0.5,0,1,0,1.5c0,2-1.4,3.3-3.4,3.3c-1,0-1.9,0-2.9,0c-2,0-3.4-1.4-3.4-3.4
		c0-0.5,0-0.9,0-1.4c0-2.2,0-4.3,0-6.5c0-0.5,0-0.9,0-1.4c0-2.1,1.3-3.4,3.4-3.4c1,0,1.9,0,2.9,0c2,0,3.4,1.4,3.4,3.4
		C71,68.4,71,68.9,71,69.3z M64.5,72.6c0,0.8,0,1.6,0,2.4c0,2.5,0,2.5,2.5,2.5c0.7,0,0.7-0.2,0.7-0.8c0-2.1,0-4.3,0-6.4
		c0-2.5,0-2.5-2.5-2.5c-0.7,0-0.8,0.2-0.7,0.8C64.5,69.9,64.5,71.2,64.5,72.6z"/>
	<g>
		<path class="st1" d="M16.1,35.5c0-2.8,0-5.6,0-8.4c0-3.4,3-5.4,6.2-4.1c6.8,2.9,13.5,5.8,20.2,8.7c1.7,0.7,2.6,2,2.6,3.8
			c0,1.8-1,3-2.6,3.7c-6.7,2.9-13.4,5.8-20.2,8.6c-3.3,1.4-6.3-0.6-6.3-4.2C16.1,41,16.1,38.2,16.1,35.5z"/>
		<path class="st1" d="M71,69.3c5.9,0,11.7,0,17.6,0c1.8,0,3.1,1.2,3.3,2.9c0.2,1.6-0.9,3.1-2.5,3.5c-0.4,0.1-0.8,0.1-1.2,0.1
			c-5.7,0-11.5,0-17.2,0C71,73.7,71,71.5,71,69.3z"/>
		<path class="st1" d="M61.3,69.3c0,2.2,0,4.3,0,6.5c-1.6,0-3.1,0-4.7,0c-1.9,0-3.3-1.4-3.3-3.3c0-1.8,1.4-3.2,3.3-3.2
			C58.1,69.3,59.7,69.3,61.3,69.3z"/>
	</g>
</g>
</svg>
