<?xml version="1.0" encoding="utf-8"?>
<!-- Generator: Adobe Illustrator 19.2.1, SVG Export Plug-In . SVG Version: 6.00 Build 0)  -->
<svg version="1.1" id="Слой_1" xmlns="http://www.w3.org/2000/svg" xmlns:xlink="http://www.w3.org/1999/xlink" x="0px" y="0px"
	 viewBox="0 0 60 60" style="enable-background:new 0 0 60 60;" xml:space="preserve">
<style type="text/css">
	.st0{fill:#333333;}
	.st1{fill:#FFB759;}
</style>
<g>
	<path class="st0" d="M45.7,48.9c-3.2,2.5-6.8,4.1-10.8,4.8c-2.8,0.6-5.7,0.6-8.5,0.2c-0.4-0.1-0.6,0.1-0.7,0.4
		c-0.4,0.7-0.6,1.4-0.5,2.2c0.1,1,0,2,0,3c0,0.3,0,0.5-0.4,0.5c-6.1,0-12.3,0-18.4,0c-0.3,0-0.5,0-0.5-0.4c0,0,0-0.1,0-0.1
		c0-1.4,0.2-2.8-0.1-4.1c-0.3-1.3-1.1-2.5-1.7-3.7c-1-2.2-2-4.4-3-6.6c-1.9-4.2-1.2-8.5,2.1-11.8c0.5-0.5,0.8-1.1,0.8-1.8
		c0-5.5,0-11.1,0-16.6c0-3.1,2.1-5.2,5.1-5.1c1.7,0.1,2.9-0.4,4.2-1.5c4-3.5,8.7-5.5,14.1-6.1c-0.2,0.7,0,1.3,0,1.9
		C22.6,4.6,16,7.5,14.5,9.7c3.2,0,6.4,0,9.6,0c1.5,0,2.8,0.6,3.8,1.7c0.2,0.2,0.4,0.3,0.7,0.3c2.7-0.3,5.4,0.2,7.9,1.2
		c1.8,0.7,3.3,1.8,4.7,3.1c0.2-0.2,0.2-0.4,0.3-0.5c1-2.1,2.5-3.7,4.5-4.7c0.5-0.2,0.4-0.4,0.1-0.7c-3.8-3.4-8.3-5.4-13.3-6
		c0.1-0.7,0.2-1.3,0-2c4.9,0.5,9.3,2.3,13.2,5.3c0.8,0.6,1.6,1.3,2.4,2.1c0.2,0.2,0.5,0.3,0.8,0.3c5.2-0.7,10.1,3,10.7,8.2
		c0.5,3.5-0.7,6.4-3.3,8.7c-0.3,0.3-0.5,0.6-0.5,1c0,6.5-2,12.2-6.2,17.2c-0.4-0.5-0.9-0.9-1.5-1.2c0.2-0.2,0.4-0.4,0.5-0.7
		c3.3-4.2,5-8.9,5.2-14.2c0-0.4,0-0.6-0.5-0.4c-1.5,0.6-3.1,0.8-4.7,0.5c-0.9-0.1-1.7-0.4-2.5-0.7c-0.1,0.6-0.1,1.2-0.2,1.8
		c-0.1,0.6-0.2,1.2-0.3,1.7c-1.8,6.7-6.1,10.8-12.8,12.4c-0.4,0.1-0.5,0.1-0.4,0.6c0.4,1.5-0.5,3.1-2,3.5c-0.6,0.2-1.2,0.1-1.7,0.1
		c-0.2,0-0.4,0-0.5,0.2c-0.5,1.1-1.1,2.2-1.7,3.4c2.8,0.4,5.5,0.3,8.2-0.3c3.5-0.7,6.7-2.3,9.6-4.4C44.9,47.9,45.2,48.4,45.7,48.9z
		 M33.6,40.2C33.7,40.1,33.7,40.1,33.6,40.2c0.8-1.1,1.3-2.2,1.7-3.4c-0.8,0-1.5,0-2.2,0c-0.3,0-0.4,0.1-0.3,0.4
		c0.2,0.7,0.1,1.4-0.3,2c-0.4,0.5-0.3,0.8,0.1,1.2c0.1,0.2,0.1,0.5,0.2,0.8C33.2,40.8,33.5,40.5,33.6,40.2L33.6,40.2z M36.8,17.5
		c0.1,0.2,0.1,0.3,0.2,0.5c0.5,1.4,0.5,1.4,2.1,1.3c0.3,0,0.7,0,1,0c0.2,0,0.6,0.1,0.6-0.1c0.1-0.4,0.2-0.8,0-1.1
		c-1.5-1.6-3.3-2.9-5.6-3.7C35.8,15.5,36.2,16.5,36.8,17.5z M36.8,38.6c-0.5,1-1,2-1.8,3.1c2.8-1.1,4.9-2.6,6.6-4.9
		c-0.9,0-1.8,0-2.6,0c-1.5-0.1-1.5-0.1-2,1.3C36.9,38.3,36.8,38.4,36.8,38.6z M42.1,24.5c-0.4-0.9-0.9-1.8-1.1-2.8
		c-0.1-0.3-0.3-0.5-0.6-0.5c-0.7,0-1.4,0-2.1,0c-0.2,0-0.3,0-0.3,0.3c0.4,1.7,0.6,3.4,0.7,5.1c0,0.3,0.1,0.4,0.4,0.4
		c1.1,0,2.3,0,3.4,0c0.6,0,1.2,0,2,0C43.5,26.3,42.8,25.4,42.1,24.5z M40.6,34.8c0.6,0,1.2,0,1.9,0c0.2,0,0.4-0.1,0.5-0.3
		c0.8-1.6,1.3-3.4,1.5-5.2c0-0.3,0-0.4-0.3-0.3c-0.5,0-1,0-1.6,0c-1.1,0-2.3,0-3.4,0c-0.3,0-0.4,0.1-0.5,0.4c-0.1,1.7-0.2,3.4-0.6,5
		c-0.1,0.3,0,0.4,0.3,0.4C39.1,34.8,39.9,34.8,40.6,34.8z M33.7,16c-0.4-0.7-0.9-1.2-1.6-1.7c-0.7-0.5-1.5-0.8-2.4-0.7
		c-0.4,0-0.7,0.2-0.6,0.7c0.1,0.4,0,0.8,0,1.2c0,1.1,0,2.3,0,3.4c0,0.4,0.1,0.4,0.4,0.4c1.2,0,2.5,0,3.7,0c0.7,0,1.4,0,2.1,0
		C34.9,18.1,34.4,17,33.7,16z M5.8,30.7C6.5,30.3,7.1,30,7.7,30c1.5-0.1,2.9,0.8,3.5,2.2c0.7,1.4,0.4,3-0.7,4.1c-1,1-2.1,2-3.1,3.1
		c1.4,0.7,2.6,1.6,3.4,2.8c0.2,0.3,0.4,0.4,0.8,0.4c2.7,0,5.4,0,8,0c1.1,0,2.2,0,3.3,0c0.2,0,0.4,0,0.3-0.3c-0.2-0.9,0-1.6,0.5-2.3
		c0.2-0.2,0.1-0.3,0-0.5c-0.3-0.4-0.5-1-0.5-1.5c-0.1-1.8,1.3-3.1,3.2-3c0.5,0,0.7-0.1,0.7-0.7c0-4.8,0-9.5,0-14.3
		c0-0.4-0.1-0.6-0.6-0.6c-6.7,0-13.5,0-20.2,0c-0.4,0-0.6,0.1-0.6,0.6c0,2.7,0,5.4,0,8.1C5.8,28.9,5.8,29.7,5.8,30.7z M24.6,52.2
		c-0.3,0-0.5,0-0.7,0c-4.2,0-8.4,0-12.6,0c-0.4,0-0.6-0.1-0.6-0.6c0-1.4,0-2.9,0-4.4c-0.1-2.7-1.3-4.7-3.7-6
		c-0.8-0.4-1.5-0.8-2.3-1.2c-0.4-0.2-0.5-0.3-0.1-0.6c1.5-1.5,3-3,4.5-4.5c0.5-0.5,0.7-1.1,0.5-1.8c-0.3-1.3-1.8-1.8-2.9-0.8
		c-0.8,0.7-1.5,1.5-2.2,2.2c-2.6,2.6-3.3,6-1.8,9.4c1.5,3.3,3,6.5,4.5,9.8c0.1,0.3,0.3,0.4,0.6,0.4c1,0,2,0,3,0c4.1,0,8.2,0,12.3,0
		c0.2,0,0.5,0.1,0.6-0.2C24,53.4,24.3,52.9,24.6,52.2z M16.5,17.4c3.4,0,6.8,0,10.2,0c0.4,0,0.5-0.1,0.5-0.5c0-0.8,0-1.6,0-2.4
		c0-1.7-1.3-3-2.9-3c-5.1,0-10.3,0-15.4,0c-1.7,0-2.9,1.3-2.9,3c0,0.8,0,1.5,0,2.3c0,0.5,0.1,0.6,0.6,0.6
		C9.7,17.4,13.1,17.4,16.5,17.4z M53.2,20c1.6,0.7,2.8,1.8,3.8,3.3c1.9-3.1,1.2-7.3-1.7-9.7c-2.9-2.5-7.1-2.5-10,0
		c-2.9,2.4-3.6,6.6-1.7,9.7c0.2,0,0.2-0.2,0.3-0.3c0.8-1.1,1.8-2,3-2.6c0.4-0.2,0.4-0.3,0.2-0.7c-0.8-1.3-0.9-2.6-0.2-3.9
		c0.7-1.3,1.9-2,3.4-2c1.6,0,2.7,0.7,3.5,2.1C54.5,17.2,54.3,18.6,53.2,20z M23.3,44.5c-3.7,0-7.5,0-11.2,0c0.1,0.5,0.3,1,0.3,1.4
		c0,0.4,0.2,0.5,0.6,0.5c2.3,0,4.6,0,6.8,0c1.5,0,1.5,0,1.5,1.5c0,0.4-0.1,0.5-0.5,0.5c-2.2,0-4.5,0-6.7,0c-1.6,0-1.6,0-1.5,1.6
		c0,0.3,0.1,0.4,0.4,0.4c4.1,0,8.1,0,12.2,0c0.2,0,0.4,0,0.5-0.2c0.3-0.6,0.5-1.1,0.8-1.7C24.1,48.3,23,47,23.3,44.5z M50.3,27.1
		c2,0,3.6-0.7,5.1-1.9c0.3-0.2,0.3-0.4,0.1-0.8c-1.2-2-2.8-3.2-5.2-3.2c-2.3,0-4,1.2-5.2,3.2C45,24.8,45,25,45.3,25.2
		C46.7,26.4,48.4,27.1,50.3,27.1z M32.9,27.1c1.2,0,2.3,0,3.5,0c0.3,0,0.4,0,0.4-0.4c-0.1-1.7-0.3-3.4-0.7-5.1
		c-0.1-0.3-0.2-0.4-0.5-0.4c-2,0-4.1,0-6.1,0c-0.3,0-0.4,0.1-0.4,0.4c0,1.6,0,3.3,0,4.9c0,0.4,0.1,0.5,0.5,0.5
		C30.7,27.1,31.8,27.1,32.9,27.1z M15.5,58.1c2.1,0,4.3,0,6.4,0c1.4,0,1.4,0,1.4-1.4c0-0.5-0.1-0.6-0.6-0.6c-4.5,0-9,0-13.5,0
		c-1.4,0-1.4,0-1.4,1.4c0,0.4,0.1,0.5,0.5,0.5C10.7,58,13.1,58.1,15.5,58.1z M32.9,29c-0.8,0-1.6,0-2.4,0C29,29,29,29,29,30.6
		c0,0.4,0.1,0.4,0.5,0.4c0.8,0,1.6,0,2.4,0c1.9,0,3.2,1.6,2.9,3.5c0,0.1,0,0.2,0,0.3c0.3,0,0.7,0,1,0c0.3,0,0.2-0.2,0.3-0.4
		c0.4-1.6,0.6-3.3,0.7-5c0-0.3-0.1-0.4-0.4-0.4C35.2,29,34.1,29,32.9,29z M48.4,17.4c0,1.1,0.8,1.9,1.9,2c1.1,0,2-0.8,2-1.9
		c0-1.1-0.8-1.9-1.9-2C49.3,15.5,48.4,16.3,48.4,17.4z M28,38.7c0.6,0,1.2,0,1.8,0c0.7,0,1.1-0.4,1.1-1c0-0.6-0.4-0.9-1.1-0.9
		c-1.2,0-2.4,0-3.6,0c-0.7,0-1.1,0.4-1.1,0.9c0,0.6,0.4,1,1.1,1C26.9,38.7,27.5,38.7,28,38.7z M28.1,42.6c0.6,0,1.2,0,1.8,0
		c0.7,0,1.1-0.4,1.1-0.9c0-0.6-0.4-1-1.1-1c-1.2,0-2.5,0-3.7,0c-0.6,0-1.1,0.4-1.1,1c0,0.6,0.4,0.9,1.1,1
		C26.9,42.6,27.5,42.6,28.1,42.6z M28,46.4c0.6,0,1.2,0,1.8,0c0.7,0,1.1-0.4,1.1-1c0-0.6-0.4-0.9-1.1-0.9c-1.2,0-2.4,0-3.6,0
		c-0.7,0-1.1,0.4-1.1,1c0,0.6,0.4,1,1.1,1C26.9,46.4,27.5,46.4,28,46.4z M30.7,32.9c0,0-0.1,0-0.1,0c-1.6,0-1.6,0-1.5,1.6
		c0,0.3,0.1,0.4,0.4,0.4c0.8,0,1.7,0,2.5,0c0.6,0,1-0.4,1-1c0-0.5-0.4-0.9-1-0.9C31.5,32.9,31.1,32.9,30.7,32.9z"/>
	<g>
		<path class="st1" d="M32.8,2.1c0.2,0.7,0,1.3,0,2c-0.1,0.2-0.3,0.3-0.4,0.5c-0.9,1.2-2.4,1.6-3.7,1c-0.7-0.3-1-0.9-1.5-1.5
			c-0.1-0.6-0.2-1.3,0-1.9c0.7-1.8,2.3-2.6,4-1.9C32,0.6,32.5,1.3,32.8,2.1z"/>
		<path class="st1" d="M45.7,48.9c-0.5-0.4-0.9-0.9-1.1-1.5c-0.3-1.4,0.1-2.5,1.2-3.3c0.8-0.6,1.7-0.6,2.6-0.4
			c0.6,0.3,1.1,0.7,1.5,1.2c0.5,1.2,0.6,2.3-0.3,3.3C48.7,49.5,47.3,49.7,45.7,48.9z"/>
	</g>
	<path class="st0" d="M17.4,15.5c-1.1,0-2.3,0-3.4,0c-0.3,0-0.5-0.1-0.5-0.4c0-1.5,0-1.5,1.5-1.5c1.9,0,3.9,0,5.8,0
		c0.3,0,0.5,0.1,0.5,0.4c0,1.5,0,1.5-1.5,1.5C19,15.5,18.2,15.5,17.4,15.5z"/>
	<path class="st0" d="M9.7,14.5c0,0.5-0.4,1-1,1c-0.5,0-1-0.4-1-0.9c0-0.5,0.4-1,1-1C9.3,13.6,9.7,14,9.7,14.5z"/>
	<path class="st1" d="M5.8,30.7C6.5,30.3,7.1,30,7.7,30c1.5-0.1,2.9,0.8,3.5,2.2c0.7,1.4,0.4,3-0.7,4.1c-1,1-2.1,2-3.1,3.1
		c1.4,0.7,2.6,1.6,3.4,2.8c0.2,0.3,0.4,0.4,0.8,0.4c2.7,0,5.4,0,8,0c1.1,0,2.2,0,3.3,0c0.2,0,0.4,0,0.3-0.3c-0.2-0.9,0-1.6,0.5-2.3
		c0.2-0.2,0.1-0.3,0-0.5c-0.3-0.4-0.5-1-0.5-1.5c-0.1-1.8,1.3-3.1,3.2-3c0.5,0,0.7-0.1,0.7-0.7c0-4.8,0-9.5,0-14.3
		c0-0.4-0.1-0.6-0.6-0.6c-6.7,0-13.5,0-20.2,0c-0.4,0-0.6,0.1-0.6,0.6c0,2.7,0,5.4,0,8.1C5.8,28.9,5.8,29.7,5.8,30.7z"/>
</g>
</svg>
