<?xml version="1.0" encoding="utf-8"?>
<!-- Generator: Adobe Illustrator 19.2.1, SVG Export Plug-In . SVG Version: 6.00 Build 0)  -->
<svg version="1.1" id="Layer_1" xmlns="http://www.w3.org/2000/svg" xmlns:xlink="http://www.w3.org/1999/xlink" x="0px" y="0px"
	 viewBox="0 0 440 162" style="enable-background:new 0 0 440 162;" xml:space="preserve">
<style type="text/css">
	.st0{fill:#FFFFFF;}
	.st1{fill:url(#SVGID_1_);}
</style>
<g>
	<path class="st0" d="M110.9,84.1c-1,18.9-16.4,33.8-35.2,33.8s-34.2-15-35.2-33.8H0c1,41.6,34.5,75,75.7,75s74.7-33.4,75.7-75
		H110.9z"/>
	<linearGradient id="SVGID_1_" gradientUnits="userSpaceOnUse" x1="0" y1="33.9484" x2="151.4834" y2="33.9484">
		<stop  offset="0" style="stop-color:#4EE483"/>
		<stop  offset="7.025270e-002" style="stop-color:#57E689"/>
		<stop  offset="0.1838" style="stop-color:#6FEB99"/>
		<stop  offset="0.3266" style="stop-color:#96F3B4"/>
		<stop  offset="0.4915" style="stop-color:#CBFDD8"/>
		<stop  offset="0.5" style="stop-color:#CEFEDA"/>
		<stop  offset="0.5229" style="stop-color:#C4FCD3"/>
		<stop  offset="0.629" style="stop-color:#9AF3B7"/>
		<stop  offset="0.7322" style="stop-color:#79EDA0"/>
		<stop  offset="0.8306" style="stop-color:#61E890"/>
		<stop  offset="0.9221" style="stop-color:#53E586"/>
		<stop  offset="1" style="stop-color:#4EE483"/>
	</linearGradient>
	<polygon class="st1" points="113.6,38.5 75.7,0 37.9,38.5 0,0 0,39.2 0,39.9 0,67.9 151.5,67.9 151.5,39.9 151.5,39.2 151.5,0 	"/>
	<g>
		<path class="st0" d="M230.3,48.3c-2.4,13.1-12.8,20.8-26,20.8c-15.3,0-27.4-12-27.4-27.4c0-15.3,12.1-27.4,27.4-27.4
			c12.7,0,23.5,7.7,26,20.1l-12.5,3c-1.6-7.6-6.9-11.3-13.5-11.3c-8.2,0-14.7,6.7-14.7,15.6s6.6,15.7,14.7,15.7
			c6.6,0,11.8-3.8,13.6-11.6L230.3,48.3z"/>
		<path class="st0" d="M265.9,28.4l-0.5,12.5h-2.2c-8.6,0-13.3,4.5-13.3,14.7v12.3h-12.3V28.6h12.3v7.5c2.8-4.7,7-8.1,13.3-8.1
			C264.2,28.1,265,28.1,265.9,28.4z"/>
		<path class="st0" d="M290.4,81.2H277l6.2-14.6l-16-38h13.3l9.2,22.9l9.8-22.9h13.3L290.4,81.2z"/>
		<path class="st0" d="M360.9,48.3c0,12.4-8.6,20.8-18.9,20.8c-5,0-9-1.6-12-4.3v16.4h-12.3V28.6H330v3.1c3-2.7,7-4.3,12-4.3
			C352.3,27.4,360.9,35.9,360.9,48.3z M348.8,48.3c0-6-3.9-10.2-9.3-10.2c-5,0-9.5,4.1-9.5,10.2c0,6.1,4.5,10.2,9.5,10.2
			C344.9,58.4,348.8,54.4,348.8,48.3z"/>
		<path class="st0" d="M396,66.2c-3,1.6-6.2,2.9-10.6,2.9c-9.6,0-15.4-5.3-15.4-15.7V38.6h-7v-9.9h7V17h12.3v11.6h11.4v9.9h-11.4
			v13.6c0,4.1,1.9,5.7,5.2,5.7c1.7,0,4-0.6,5.6-1.6L396,66.2z"/>
		<path class="st0" d="M440,48.3c0,12.4-9.7,20.7-21.2,20.7c-11.7,0-21.4-8.3-21.4-20.7c0-12.4,9.7-20.7,21.4-20.7
			C430.3,27.6,440,35.9,440,48.3z M428.1,48.3c0-6.1-4.5-10.2-9.3-10.2c-5,0-9.6,4.1-9.6,10.2c0,6.2,4.5,10.2,9.6,10.2
			C423.6,58.4,428.1,54.4,428.1,48.3z"/>
		<path class="st0" d="M210.9,147.1L194,127.4h-2.7v19.7h-12.7V94.7h12.7v20.8h1.8l17.6-20.8H226l-22,26.3l23.5,26.1H210.9z"/>
		<path class="st0" d="M245.7,96.3c0,4-3,7-7.2,7s-7.1-3-7.1-7c0-3.8,2.9-7.1,7.1-7.1S245.7,92.4,245.7,96.3z M232.4,147.1v-39.3
			h12.3v39.3H232.4z"/>
		<path class="st0" d="M293.5,123v24.1h-12.3v-21.4c0-4.6-2.7-7.7-6.6-7.7c-4.9,0-8,3.4-8,11v18.2h-12.3v-39.3h12.3v3.8
			c2.9-3.1,7-4.9,11.9-4.9C287.5,106.7,293.5,113.2,293.5,123z"/>
		<path class="st0" d="M341.8,143.2c0,12.1-9.1,18.8-21.7,18.8c-8.9,0-15.6-3.1-19.4-9.5l10.3-5.6c2.9,3.5,5.1,4.9,9.1,4.9
			c5.6,0,9.6-3.4,9.6-9.5v-1.1c-2.8,2.4-6.6,3.8-11.6,3.8c-10.1,0-18.7-8.1-18.7-19.3c0-10.9,8.6-18.9,18.7-18.9
			c5,0,8.9,1.3,11.6,3.8v-2.6h12.1V143.2z M329.7,125.6c0-5.2-4.1-8.9-9-8.9c-5.4,0-9.2,3.7-9.2,8.9c0,5.2,3.9,9,9.2,9
			C325.6,134.6,329.7,130.9,329.7,125.6z"/>
		<path class="st0" d="M360.2,134.4c0.5,3.4,3.5,4.6,6.9,4.6c3.2,0,5-1.4,5-3.1c0-1.3-1-2.3-3.9-2.9l-7.9-1.6
			c-7.2-1.3-11.3-5.2-11.3-11.4c0-8.1,6.9-13.3,16.6-13.3c9.6,0,16,4.5,17.6,11.3l-11.3,2.3c-0.4-2.4-2.7-4.6-6.5-4.6
			c-3.3,0-4.4,1.6-4.4,3.1c0,1.1,0.5,2.2,2.9,2.7l9.1,1.9c7.3,1.6,10.7,6,10.7,11.8c0,8.7-7.4,13.2-17.6,13.2
			c-9.1,0-16.9-3.4-18.2-11.4L360.2,134.4z"/>
	</g>
</g>
</svg>
