<?xml version="1.0" encoding="utf-8"?>
<!-- Generator: Adobe Illustrator 19.2.1, SVG Export Plug-In . SVG Version: 6.00 Build 0)  -->
<svg version="1.1" id="Слой_1" xmlns="http://www.w3.org/2000/svg" xmlns:xlink="http://www.w3.org/1999/xlink" x="0px" y="0px"
	 viewBox="0 0 80 80" style="enable-background:new 0 0 80 80;" xml:space="preserve">
<style type="text/css">
	.st0{fill:#333333;}
	.st1{fill:#FFB759;}
</style>
<g>
	<path class="st0" d="M47.6,40.3c2.8,3.1,1.3,7.6-2.3,8.5c-1.3,0.3-1.5,0.8-1.8,2c-1.1,4.7-3.9,8.1-8.4,10.1
		C35,60.9,34.8,61,34.7,61c0,0.2,0.2,0.3,0.3,0.3c5.8,3.3,8.7,8.3,8.9,15c0,1.1,0,1.1,1.1,1.1c9.7,0,19.4,0,29,0
		c0.7,0,0.9,0.1,0.9,0.8c-0.1,1.8,0,1.8-1.8,1.8c-22.3,0-44.7,0-67,0c-0.7,0-1-0.1-0.9-0.9c0.1-1.7,0-1.7,1.7-1.7c0.9,0,1.9,0,2.8,0
		c0.6,0,0.7-0.2,0.7-0.7c-0.1-3.8,0.9-7.2,3.1-10.3c1.6-2.2,3.6-4,6.1-5.2c-0.1-0.3-0.4-0.3-0.6-0.4c-4.8-2.2-7.7-5.9-8.5-11.2
		c0-0.3,0-0.5-0.4-0.6c-4.2-0.8-5.8-3.9-4.2-7.8c0.9-1.3,2-2.3,3.5-2.4c0.9-0.1,1-0.5,0.9-1.2c0-2.3,1.5-3.9,3.8-4
		c1.8-0.1,3-1.1,3.4-2.9c0-0.2,0.1-0.4,0.1-0.6c0.4-2,0.4-2,2.4-1.5c0.4,0.1,0.5,0.2,0.4,0.6c-0.3,1.5-0.5,3-1.4,4.4
		c0.9,0,1.8,0.1,2.6-0.2c1.6-0.6,2.2-1.8,2.4-3.3c0.1-0.6,0-1.5,0.5-1.8c0.5-0.2,1.2,0.2,1.9,0.3c0.5,0.1,0.5,0.3,0.4,0.7
		c-0.3,1.5-0.5,3-1.4,4.3c2.6,0.4,4.6-0.5,5-3.6c0.2-1.8,0.3-1.8,2.1-1.5c0.7,0.1,0.8,0.4,0.6,1c-0.3,1.4-0.5,2.8-1.3,4.1
		c0.6,0,1.1,0,1.6,0c1.8,0,3-1,3.5-2.7c0.1-0.5,0.2-1,0.4-1.5c0.3-1,1.2-1.3,2-0.7c1.5,1,2.6,2.4,3.4,4c0.8,1.7,1,3.5,1,5.4
		c0,0.3-0.1,0.7,0.5,0.7C45.6,38.8,46.7,39.4,47.6,40.3z M39.5,32.1c-1.3,2.9-3.4,4.2-6.5,4.1c-2.8-0.1-5.7,0-8.5,0
		c-3.3,0-6.7,0-10,0c-1,0-1.6,0.4-1.6,1.3c0,3.8-0.1,7.5,0.1,11.3c0.2,4.7,3.9,9,8.4,10.1c3.6,0.8,7.3,0.8,10.8,0.1
		c5-0.9,8.8-5.5,9-10.4c0.1-4.1,0.1-8.2,0-12.3C41.2,34.7,40.5,33.3,39.5,32.1z M30.2,69.4c-0.1,0.8-0.6,1.3-0.5,1.9
		c0.3,1.9,0.6,3.8,0.9,5.7c0.1,0.4,0.2,0.5,0.6,0.4c3.2,0,6.3,0,9.5,0c0.4,0,0.5-0.1,0.5-0.5c0-1,0-2.1-0.2-3.1
		c-0.7-3.9-2.7-7-5.9-9.4c-0.8,2.6-1.5,5.1-2.3,7.8C31.9,71.2,31.1,70.4,30.2,69.4z M19,64.5c-0.1,0.1-0.2,0.1-0.3,0.2
		c-4,3.1-5.9,7.2-5.8,12.2c0,0.5,0.3,0.5,0.6,0.5c3.1,0,6.2,0,9.3,0c0.5,0,0.6-0.2,0.7-0.7c0.3-1.7,0.5-3.4,0.8-5.1
		c0.1-0.8-0.2-1.4-0.5-2.3c-0.9,0.9-1.7,1.8-2.5,2.7C20.6,69.5,19.8,67,19,64.5z M22.6,67.2c1.4-1.4,2.7-2.7,4-4
		c0.5-0.5,0.7-0.4,1.1,0c1.1,1.1,2.2,2.2,3.3,3.3c0.2,0.2,0.4,0.5,0.7,0.6c0.3-1.2,0.7-2.3,1-3.4c0.1-0.3,0.1-0.5-0.2-0.7
		c-3.6-1.4-7.1-1.4-10.7,0c-0.3,0.1-0.4,0.3-0.3,0.6C21.8,64.8,22.2,66,22.6,67.2z M10.3,41.3c-0.3,0.1-0.5,0.1-0.7,0.1
		c-1.1,0.3-1.8,1.3-1.8,2.5c0,1.2,0.8,2.2,1.9,2.4c0.2,0.1,0.6,0.3,0.6-0.3C10.3,44.5,10.3,42.9,10.3,41.3z M46.4,43.9
		c0-1.3-0.8-2.3-2.1-2.6c-0.4-0.1-0.5,0-0.5,0.4c0,1.4,0,2.8,0,4.2c0,0.5,0.2,0.5,0.6,0.5C45.6,46.1,46.4,45.1,46.4,43.9z
		 M27.1,77.4c0.2,0,0.4,0,0.6,0c0.4,0,0.4-0.1,0.4-0.5c-0.3-1.4-0.5-2.8-0.7-4.3c0-0.2,0-0.4-0.2-0.4c-0.3,0-0.2,0.3-0.3,0.5
		c-0.2,1.2-0.4,2.4-0.6,3.7C26.1,77.4,26.1,77.4,27.1,77.4z M27.1,66.4c-0.3,0-1.1,1.1-1,1.3c0.2,0.5,0.4,1.1,0.5,1.6
		c0.1,0.2,0.2,0.3,0.4,0.3c0.3,0,0.4-0.1,0.5-0.3c0.1-0.5,0.4-1,0.5-1.5C28.2,67.5,27.4,66.4,27.1,66.4z"/>
	<path class="st1" d="M47.6,40.3c-0.9-0.9-2-1.5-3.2-1.5c-0.6,0-0.5-0.4-0.5-0.7c0.1-1.9-0.1-3.7-1-5.4c-0.8-1.6-1.9-3-3.4-4
		c-0.8-0.6-1.7-0.3-2,0.7c-0.2,0.5-0.3,1-0.4,1.5c-0.5,1.7-1.7,2.7-3.5,2.7c-0.5,0-0.9,0-1.6,0c0.8-1.3,1-2.7,1.3-4.1
		c0.1-0.6,0.1-0.9-0.6-1c-1.8-0.3-1.8-0.4-2.1,1.5c-0.4,3.1-2.4,4-5,3.6c0.9-1.3,1-2.8,1.4-4.3c0.1-0.4,0.1-0.6-0.4-0.7
		c-0.6-0.1-1.4-0.5-1.9-0.3c-0.5,0.2-0.4,1.2-0.5,1.8c-0.3,1.5-0.9,2.8-2.4,3.3c-0.8,0.3-1.6,0.2-2.6,0.2c0.9-1.4,1-2.9,1.4-4.4
		c0.1-0.4,0-0.5-0.4-0.6c-2-0.5-2-0.5-2.4,1.5c0,0.2-0.1,0.4-0.1,0.6c-0.4,1.8-1.6,2.8-3.4,2.9c-2.3,0.1-3.9,1.7-3.8,4
		c0,0.7,0,1.1-0.9,1.2C7.8,39,6.7,40,5.8,41.3c-1-1-2-2.1-3.1-3.1c-0.5-0.4-0.5-0.8-0.1-1.2C3.3,36,3.9,35,4.5,34.1
		c0.3-0.4,0.3-0.7,0-1.1c-1.2-1.5-2.3-3.1-3.5-4.7c-0.4-0.5-0.3-0.7,0.3-0.9c2.3-0.7,4.5-1.5,6.8-2.3c0.6-0.2,0.8-0.4,0.6-1
		c-0.5-2.2-0.9-4.5-1.4-7c6,2.8,12.2,3.7,18.6,3.4c0.9,0,1.8,0,2.6,0c1.7,0,3.5,0,5.2,0c1.4,0.1,2.9,0.1,4.3,0.2
		c1,0.4,2.1,0.6,3.1,1.1c3,1.4,5.1,3.6,6.6,6.5c0.3,0.8,0.6,1.7,0.9,2.5c0.2,1.5,0.5,3,0.2,4.6c-0.2,1-0.4,2-0.6,3
		C48,39.1,47.8,39.7,47.6,40.3z"/>
	<path class="st0" d="M48.4,38.5c0.2-1,0.4-2,0.6-3c0.2,0.1,0.3,0.3,0.5,0.4c4.5,4.4,11.9,3.4,15.1-2c0.2-0.4,0.4-1,0.7-1.2
		c0.4-0.2,0.9,0.3,1.3,0.4c1.9,0.7,3.6,0.4,5.1-0.8c1.5-1.3,2.1-2.9,1.8-4.9c-0.2-1-0.7-1.8-1.1-2.8c0.6-0.2,1.1-0.3,1.6-0.5
		c1.9-0.7,3.1-2,3.4-4c0.3-2.1-0.4-3.8-2.2-5.1c-0.7-0.5-1.6-0.8-2.5-0.9c-0.6-0.1-0.9-0.2-0.7-0.9c0.3-0.9,0.4-1.9,0.1-2.9
		c-1-3.7-5.1-5-8.3-2.7C63,8.3,63,8.3,62.3,7.5c-2.1-2.7-4.8-4.5-8.2-4.8c-4.6-0.4-8.2,1.4-10.8,5c-0.3,0.5-0.6,0.6-1.1,0.1
		c-1.1-1-2.5-1.6-4-1.4C35,6.9,33,9.7,33.7,12.9c0.3,1.1,0.3,1.1-1,1.4c-3.1,0.6-4.9,3.3-4.2,6.4c-0.9,0-1.8,0-2.6,0
		c-0.6-3.6,1.2-6.8,4.5-8.3c0.4-0.2,0.5-0.4,0.5-0.8c0.2-5.6,5.7-9.1,10.8-7c0.4,0.2,0.7,0.1,1-0.2c5.8-5.8,14.5-5.8,20.3,0
		c0.3,0.3,0.5,0.4,1,0.2c5.1-2.2,10.6,1.4,10.8,7c0,0.4,0.2,0.6,0.5,0.8c2.8,1.3,4.4,3.4,4.6,6.5c0.2,3.1-1,5.5-3.7,7.2
		c-0.4,0.2-0.4,0.5-0.3,0.9c1.1,5.5-3.5,10.2-9,9.2c-0.3-0.1-0.6-0.2-0.8,0.2c-0.6,1-1.5,1.7-2.5,2.6c1.6-0.2,2.9,0.1,4,1
		c1.1,0.9,1.8,2,2,3.4c0.3,2.1-0.8,4.4-2.8,5.3c-2.1,1-4.5,0.6-6.1-1.1c-1.7-1.8-1.8-4.1-0.2-6.8C56,42,52,41.4,48.4,38.5z
		 M64.5,46.4c1.4,0,2.6-1.1,2.5-2.6c0-1.4-1.2-2.6-2.6-2.6c-1.4,0-2.6,1.2-2.6,2.6C61.9,45.3,63.1,46.4,64.5,46.4z"/>
	<path class="st0" d="M50.3,64.5c-2.1,0-3.9-1.8-3.9-3.9c0-2.1,1.8-3.9,3.9-3.9c2.1,0,3.9,1.8,3.9,3.9
		C54.2,62.8,52.4,64.5,50.3,64.5z M51.6,60.6c0-0.7-0.6-1.3-1.3-1.2c-0.7,0-1.3,0.6-1.2,1.3c0,0.7,0.6,1.3,1.3,1.2
		C51.1,61.9,51.6,61.3,51.6,60.6z"/>
	<path class="st0" d="M56.8,56.8c-2.2,0-3.9-1.7-3.9-3.8c0-2.2,1.7-3.9,3.8-3.9c2.1,0,3.9,1.7,3.9,3.8C60.6,55,58.9,56.7,56.8,56.8z
		 M58.1,52.9c0-0.7-0.6-1.3-1.3-1.3c-0.7,0-1.3,0.6-1.3,1.3c0,0.7,0.6,1.3,1.3,1.3C57.5,54.2,58.1,53.6,58.1,52.9z"/>
	<path class="st0" d="M1.3,80C0,80,0,80,0,78.7c0-1.3,0-1.3,1.3-1.3c1.3,0,1.3,0,1.3,1.3C2.6,80,2.6,80,1.3,80z"/>
	<path class="st0" d="M80,78.7c0,1.3,0,1.3-1.3,1.3c-1.2,0-1.2,0-1.2-1.3c0-1.3,0-1.3,1.4-1.3C80,77.4,80,77.4,80,78.7z"/>
	<path class="st0" d="M33.8,20.6c0.3-1,1-1.7,1.9-2.1c0.4-0.2,0.5-0.4,0.5-0.8c0-1.4,0-2.8,0-4.2c0-0.5,0.1-0.6,0.6-0.6
		c1.4,0,2.8,0,4.1,0c0.4,0,0.7-0.1,0.9-0.5c0.7-1.4,1.9-2.1,3.4-2.1c1.5,0,2.7,0.7,3.4,2.1c0.2,0.4,0.4,0.5,0.8,0.5c2.3,0,4.7,0,7,0
		c0.4,0,0.6-0.1,0.8-0.5c0.7-1.4,1.9-2.1,3.5-2.1c1.5,0,2.7,0.7,3.4,2.1c0.2,0.4,0.4,0.5,0.8,0.5c1.4,0,2.8,0,4.1,0
		c0.5,0,0.7,0.1,0.7,0.6c0,2.2,0,4.4,0,6.6c0,0.4-0.1,0.6-0.6,0.6c-0.3,0-0.6,0-0.9,0c-0.7,0.1-1.2,0.6-1.2,1.2
		c0,0.6,0.4,1.2,1.1,1.3c0.1,0,0.1,0,0.2,0c0.4,0.1,1-0.3,1.3,0.2c0.2,0.3,0,0.9,0,1.3c0,1.8,0,3.5,0,5.3c0,0.7-0.1,0.9-0.9,0.9
		c-6.7,0-13.4,0-20.1,0c-0.3-0.8-0.6-1.7-0.9-2.5c0.6,0,1.1,0,1.7,0c0.7,0,1.5,0.3,1.9-0.1c0.4-0.4,0.1-1.3,0.1-2
		c0.1-0.5-0.1-0.8-0.6-1c-2.4-1.3-2.7-4.8-0.4-6.4c0.9-0.6,1.1-1.2,1-2.2c0-0.3,0-0.5,0-0.8c0-0.4-0.1-0.5-0.5-0.5c-1,0-2,0-3,0
		c-0.5,0-1.1,0.2-1.5-0.1c-0.5-0.3-0.1-0.9-0.2-1.4c-0.1-0.7-0.6-1.1-1.3-1.1c-0.7,0-1.2,0.5-1.3,1.1c0,0.2,0,0.4,0,0.5
		c0.2,0.8-0.2,0.9-0.9,0.9c-1.1-0.1-2.3,0-3.4,0c-0.7,0-0.9,0.2-0.8,0.9c0.1,1.1,0,2.3,0,3.4c0,0.5,0,0.9-0.6,1
		C36.7,20.7,35.2,20.7,33.8,20.6z M60.6,28.4c1.5,0,2.9,0,4.4,0c0.7,0,1.6,0.2,2-0.1c0.5-0.4,0.1-1.3,0.2-2c0.1-0.5-0.2-0.8-0.6-1
		C64.1,24,63.7,20.6,66,19c1.1-0.7,1.2-1.5,1.1-2.6c0-0.2,0-0.3,0-0.5c0.1-0.4-0.1-0.5-0.5-0.5c-1,0-1.9,0-2.9,0
		c-0.5,0-1.1,0.2-1.5-0.1c-0.5-0.3-0.1-0.9-0.2-1.4c-0.1-0.7-0.5-1-1.2-1.1c-0.7,0-1.2,0.4-1.3,1.1c0,0.3,0,0.6,0,0.9
		c0.1,0.5-0.1,0.6-0.6,0.6c-1.3,0-2.7,0-4,0c-0.5,0-0.6,0.1-0.6,0.6c0,1,0,2,0,3c0,0.5,0.2,1-0.1,1.4c-0.2,0.4-0.9,0.1-1.3,0.2
		c-0.7,0.1-1.2,0.6-1.2,1.3c0,0.6,0.5,1.2,1.1,1.3c0.3,0,0.6,0.1,0.9,0c0.5-0.1,0.6,0.1,0.6,0.6c0,1.3,0,2.7,0,4
		c0,0.5,0.1,0.6,0.6,0.6C56.7,28.4,58.6,28.4,60.6,28.4z"/>
	<path class="st0" d="M27.1,49c2,0,3.9,0,5.9,0c0.5,0,0.6,0.1,0.6,0.6c0.1,3.5-1.8,6.2-4.9,6.9c-4,1-7.9-2-8-6.1
		c0-1.4,0-1.4,1.4-1.4C23.7,49,25.4,49,27.1,49z M23.5,51.6c0.5,1.5,1.8,2.5,3.4,2.6c1.5,0.1,3-0.8,3.6-2.1c0.2-0.3,0.2-0.5-0.3-0.5
		C28,51.6,25.8,51.6,23.5,51.6z"/>
	<path class="st0" d="M37.4,43.9c-0.2,0-0.4,0-0.6,0c-0.4,0-0.6,0-0.7-0.5c-0.2-1.2-1.3-2.1-2.5-2.1c-1.2,0-2.2,0.8-2.5,2
		c-0.1,0.6-0.4,0.7-0.9,0.6c-0.4,0-0.7-0.1-1.1,0c-0.7,0.1-0.7-0.3-0.7-0.8c0.3-2.5,2.7-4.5,5.3-4.4c2.5,0.1,4.7,2.2,4.9,4.7
		c0,0.4-0.1,0.5-0.5,0.5C38,43.9,37.7,43.9,37.4,43.9z"/>
	<path class="st0" d="M24.5,43.9c-0.2,0-0.5,0-0.7,0c-0.4,0-0.5-0.1-0.6-0.5c-0.3-1.3-1.3-2.1-2.5-2.1c-1.2,0-2.2,0.8-2.5,2.2
		c0,0,0,0.1,0,0.1c-0.1,0.3-1.7,0.5-2.4,0.3c-0.5-0.1-0.2-0.5-0.2-0.8c0.4-2.4,2.3-4.2,4.6-4.4c2.5-0.2,4.7,1.3,5.4,3.6
		C26.1,43.8,26,43.9,24.5,43.9z"/>
</g>
</svg>
