<?xml version="1.0" encoding="utf-8"?>
<!-- Generator: Adobe Illustrator 19.2.1, SVG Export Plug-In . SVG Version: 6.00 Build 0)  -->
<svg version="1.1" id="Слой_1" xmlns="http://www.w3.org/2000/svg" xmlns:xlink="http://www.w3.org/1999/xlink" x="0px" y="0px"
	 viewBox="0 0 60 60" style="enable-background:new 0 0 60 60;" xml:space="preserve">
<style type="text/css">
	.st0{fill:#333333;}
	.st1{fill:#FFB759;}
</style>
<g>
	<path class="st0" d="M18.7,15.5c-2.2-1.9-3.3-4.2-3.2-7c0.1-4.1,3.3-7.8,7.4-8.3c4-0.5,7.6,1.5,9.2,5.1c0.2,0.5,0.5,0.6,1,0.6
		c8.7,0,17.5,0,26.2,0c0.6,0,0.7,0.1,0.7,0.7c0,7.9,0,15.9,0,23.8c0,0.5-0.1,0.7-0.6,0.7c-2.8,0-5.7,0-8.5,0c-0.4,0-0.5,0.1-0.5,0.5
		c0,0.9,0,1.7,0,2.6c0,0.4,0.1,0.5,0.5,0.6c1,0.2,2,0.5,3,0.7c1.5,0.4,2.3,1.4,2.3,3c0,2.6,0,5.3,0,7.9c0,1.6-0.5,3-1.4,4.2
		c-0.6,0.8-1.3,1.6-2,2.5c-0.2,0.2-0.2,0.4,0,0.6c1.1,1.8,1.6,3.8,1.5,5.9c0,0.4-0.1,0.5-0.5,0.5c-5.5,0-11,0-16.5,0
		c-0.4,0-0.5-0.1-0.5-0.5c0-1,0-1.9,0.3-2.9c0.1-0.5,0-0.6-0.4-0.6c-4.9,0-9.8,0-14.6,0c-6.3,0-12.5,0-18.8,0c-2,0-3.2-1.2-3.2-3.1
		c0-11.4,0-22.9,0-34.3c0-2,1.2-3.1,3.2-3.1c4.9,0,9.9,0,14.8,0C18.2,15.5,18.4,15.5,18.7,15.5z M38.7,35c0-1.2,0-2.3,0-3.5
		c0-0.5-0.1-0.6-0.6-0.6c-5.4,0-10.8,0-16.3,0c-0.4,0-0.6-0.1-0.6-0.6c0-1.6,0-3.1,0-4.7c0-0.5-0.1-0.6-0.6-0.6c-6,0-12.1,0-18.1,0
		c-0.5,0-0.6,0.1-0.6,0.6c0,9,0,18,0,27c0,1.1,0.3,1.4,1.4,1.4c9.8,0,19.7,0,29.5,0c1.6,0,3.1,0,4.7,0c0.6,0,0.6-0.4,0.9-0.7
		c0.3-0.3-0.1-0.5-0.2-0.7c-0.6-0.8-1.3-1.6-1.9-2.4c-0.7-0.9-1.1-1.9-1.3-3c-0.2-1.1-0.1-2.2-0.1-3.3c0-1,0.1-1.9-0.1-2.9
		c-0.2-1.3-0.9-2.3-1.5-3.5c-0.5-1-0.5-1.9,0.1-2.8c0.7-1,1.7-1.2,2.8-1C37.1,34,37.9,34.4,38.7,35z M52.2,37.1c0,1.7,0,3.3,0,5
		c0,1.5,0,1.5-1.5,1.5c-0.4,0-0.5-0.1-0.5-0.5c0-1.7,0-3.4,0-5.1c0-1.5,0-1.5-1.4-1.8c-0.4-0.1-0.5,0-0.5,0.4c0,1.9,0,3.7,0,5.6
		c0,1.4,0,1.4-1.4,1.4c-0.4,0-0.5-0.1-0.5-0.5c0-2,0-4,0-6c0-1.4,0-1.4-1.4-1.8c-0.5-0.1-0.5,0-0.5,0.5c0,2.2,0,4.4,0,6.5
		c0,1.3,0,1.3-1.3,1.3c-0.5,0-0.6-0.1-0.6-0.6c0-5.5,0-10.9,0-16.4c0-0.2,0-0.4,0-0.5c-0.1-0.5-0.4-0.8-1-0.8c-0.5,0-0.9,0.3-1,0.8
		c0,0.2,0,0.4,0,0.5c0,5.2,0,10.4,0,15.6c0,1.4,0,1.4-1.4,1.4c-0.4,0-0.6-0.1-0.6-0.5c0-1.3,0-2.7,0-4c0-1.7-1.3-3.1-3-3.2
		c-0.3,0-0.6,0-0.8,0.3c-0.2,0.3-0.1,0.5,0.1,0.8c0.3,0.6,0.6,1.2,0.9,1.7c0.6,1.2,1,2.5,0.9,3.8c0,1.3,0,2.6,0,3.9
		c0,1.1,0.4,2.2,1.1,3.1c0.7,0.8,1.3,1.7,2,2.5c0.2,0.3,0.4,0.4,0.8,0.4c3.2,0,6.5,0,9.7,0c0.3,0,0.5-0.1,0.7-0.3
		c0.7-0.9,1.4-1.7,2.1-2.6c0.6-0.8,1-1.7,1-2.7c0-2.8,0-5.6,0-8.3c0-0.5-0.2-0.8-0.6-0.9C53.1,37.2,52.7,37.1,52.2,37.1z M56.3,7.7
		c-7.8,0-15.4,0-23,0c-0.4,0-0.4,0.1-0.4,0.5c0.1,1.6-0.2,3.2-1,4.6c-0.2,0.4-0.1,0.5,0.2,0.8c1.7,1.4,3.4,2.6,5,4.1
		c1.4,1.3,2.9,1.9,4.8,1.7c0.3,0,0.6-0.1,0.9-0.3c2.9-2.4,5.7-4.7,8.6-7.1C52.9,10.6,54.5,9.2,56.3,7.7z M58,28.3
		c0-6.5,0-12.9,0-19.4c-4.6,3.8-9.2,7.5-13.8,11.3C48.9,22.9,53.4,25.6,58,28.3z M31,8.7c0-3.7-3-6.8-6.7-6.8c-3.8,0-6.8,3-6.8,6.8
		c0,3.7,3,6.7,6.8,6.8C27.9,15.5,31,12.4,31,8.7z M11.6,23.2c3.1,0,6.2,0,9.2,0c0.4,0,0.5-0.1,0.5-0.5c0-1.6,0-3.3,0-4.9
		c0-0.4-0.2-0.5-0.5-0.5c-5.9,0-11.8,0-17.7,0c-0.8,0-1.1,0.4-1.2,1.1c0,1.4,0,2.8,0,4.2c0,0.4,0.1,0.5,0.5,0.5
		C5.5,23.2,8.5,23.2,11.6,23.2z M23.2,28.3c4.6-2.7,9.2-5.4,13.8-8.1c-2.1-1.8-4.2-3.5-6.2-5.1c-0.2-0.1-0.3-0.3-0.6-0.1
		c-1.8,1.8-4.1,2.5-6.6,2.4c-0.3,0-0.4,0-0.4,0.3C23.2,21.2,23.2,24.7,23.2,28.3z M55.3,28.9c-0.2-0.1-0.4-0.2-0.6-0.3
		c-3.3-2-6.7-3.9-10-5.9c-1.7-1-3.3-1.6-5.3-1.4c-0.3,0-0.7,0.1-1,0.3c-4,2.4-8,4.7-12,7.1c-0.2,0.1-0.4,0.2-0.6,0.3
		C26,29,26,29,26,29c4.1,0,8.2,0,12.3,0c0.3,0,0.3-0.2,0.3-0.4c0-0.8,0-1.7,0-2.5c0-1.6,1.3-2.9,2.9-2.9c1.6,0,2.9,1.3,2.9,2.9
		c0,0.8,0,1.6,0,2.4c0,0.4,0.1,0.5,0.5,0.5c3.3,0,6.6,0,9.9,0C55,29,55.2,29.1,55.3,28.9z M45.5,58c2.1,0,4.2,0,6.2,0
		c0.3,0,0.5,0,0.4-0.4c-0.2-1.2-0.6-2.2-1.3-3.2c-0.1-0.2-0.3-0.2-0.5-0.2c-3.3,0-6.6,0-9.9,0c-0.2,0-0.4,0-0.5,0.3
		c-0.6,1-1,2-1.2,3.1c-0.1,0.4,0,0.5,0.4,0.5C41.3,58,43.4,58,45.5,58z M46.6,31c-0.2,0-0.3,0-0.4,0c-0.6,0-1.3-0.2-1.6,0.1
		c-0.3,0.3-0.1,1.1-0.1,1.6c0,0.3,0.1,0.4,0.4,0.5c0.7,0.2,1.5,0.4,2.2,0.5c1.2,0.3,1.2,0.3,1.2-0.9c0-0.6,0.2-1.4-0.1-1.7
		C47.9,30.7,47.1,31,46.6,31z"/>
	<path class="st0" d="M11.6,27.1c2.4,0,4.8,0,7.3,0c0.4,0,0.5,0.1,0.5,0.5c0,1.6,0,3.3,0,4.9c0,0.3-0.1,0.4-0.4,0.4
		c-4.9,0-9.8,0-14.6,0c-0.3,0-0.4-0.1-0.4-0.4c0-1.6,0-3.3,0-4.9c0-0.4,0.1-0.5,0.5-0.5C6.8,27.1,9.2,27.1,11.6,27.1z M11.6,30.9
		c1.5,0,3,0,4.5,0c1.4,0,1.4,0,1.4-1.4c0-0.5-0.1-0.6-0.6-0.5c-3.2,0-6.4,0-9.6,0c-1.5,0-1.4,0-1.5,1.5c0,0.4,0.1,0.5,0.5,0.5
		C8.1,30.9,9.8,30.9,11.6,30.9z"/>
	<path class="st0" d="M23.2,36.8c0-0.6-0.2-1.4,0.1-1.8c0.3-0.4,1.1-0.1,1.7-0.1c1.8,0,3.6,0,5.4,0c0.4,0,0.5,0.1,0.5,0.5
		c0,0.5,0,1,0,1.4C28.4,36.8,25.8,36.8,23.2,36.8z"/>
	<path class="st0" d="M23.2,38.7c2.6,0,5.1,0,7.7,0c0,0.6,0,1.3,0,1.9c-2.6,0-5.1,0-7.7,0C23.2,40,23.2,39.3,23.2,38.7z"/>
	<path class="st0" d="M23.2,42.6c2.6,0,5.1,0,7.7,0c0,0.6,0,1.3,0,1.9c-2.6,0-5.1,0-7.7,0C23.2,43.8,23.2,43.2,23.2,42.6z"/>
	<path class="st0" d="M23.2,46.4c2.6,0,5.1,0,7.7,0c0,0.6,0,1.3,0,1.9c-2.6,0-5.1,0-7.7,0C23.2,47.7,23.2,47.1,23.2,46.4z"/>
	<path class="st0" d="M27.1,52.2c0-0.5,0-1,0-1.5c0-0.4,0.1-0.4,0.4-0.4c1.1,0,2.3,0,3.4,0c0,0.6,0.2,1.4-0.1,1.8
		c-0.3,0.4-1.1,0.1-1.7,0.1C28.5,52.2,27.8,52.2,27.1,52.2z"/>
	<path class="st0" d="M23.2,50.3c0.6,0,1.5-0.3,1.8,0.1c0.3,0.4,0.1,1.2,0.1,1.8c-0.6,0-1.5,0.3-1.8-0.1
		C23,51.8,23.2,50.9,23.2,50.3z"/>
	<g>
		<path class="st1" d="M16.8,51.5c-0.2-0.1-0.5-0.2-0.7-0.3c-0.3-0.2-0.6-0.2-0.6,0.2c-0.1,0.8-0.6,0.9-1.3,0.9
			c-1.2-0.1-2.4-0.1-3.6,0c-0.6,0-0.9-0.2-1-0.7c-0.1-0.5-0.4-0.6-0.8-0.3c-0.5,0.3-0.8,0.2-1.2-0.2c-0.9-0.9-1.8-1.8-2.7-2.7
			c-0.4-0.4-0.5-0.7-0.2-1.2c0.3-0.4,0.2-0.7-0.3-0.8c-0.5-0.1-0.7-0.4-0.7-1c0.1-1.3,0-2.6,0-3.9c0-0.5,0.1-0.8,0.6-0.9
			c0.5-0.1,0.7-0.4,0.4-0.9c-0.3-0.4-0.2-0.7,0.2-1.1C6,37.9,6.9,37,7.8,36c0.4-0.4,0.7-0.6,1.2-0.2c0.5,0.4,0.7,0.1,0.8-0.4
			c0.1-0.5,0.4-0.7,0.9-0.7c1.3,0,2.6,0,3.9,0c0.6,0,0.8,0.2,0.9,0.7c0.1,0.5,0.4,0.7,0.8,0.3c0.4-0.3,0.8-0.2,1.1,0.2
			c0.9,0.9,1.8,1.9,2.7,2.7c0.4,0.4,0.5,0.7,0.2,1.1c-0.3,0.5-0.2,0.7,0.3,0.8c0.5,0.1,0.7,0.4,0.7,0.9c0,1.3,0,2.6,0,3.9
			c0,0.5-0.1,0.8-0.6,0.8c-0.6,0.1-0.8,0.4-0.4,0.9c0.3,0.4,0.2,0.7-0.1,1c-1,1-2,2-3,2.9C17.1,51.3,17,51.5,16.8,51.5z M17.4,43.5
			c0-2.7-2.2-4.8-4.8-4.8c-2.7,0-4.8,2.2-4.8,4.8c0,2.7,2.2,4.8,4.8,4.8C15.2,48.4,17.4,46.2,17.4,43.5z"/>
		<path class="st1" d="M25.2,9.9c0,1.1,0,2.1,0,3.2c0,0.3-0.1,0.4-0.4,0.4c-1.5,0-1.5,0-1.5-1.5c0-1.7,0-3.3,0-5
			c0-0.9-0.3-1.3-1.2-1.2c-0.6,0-0.8-0.1-0.7-0.7c0,0,0-0.1,0-0.1c0-1.2,0-1.2,1.2-1.1C24,4,25.1,5.2,25.2,6.7
			C25.2,7.8,25.2,8.8,25.2,9.9z"/>
	</g>
	<path class="st0" d="M3.9,20.3c0-1,0-1,1-1c1,0,1,0,1,0.9c0,1,0,1-1,1C3.9,21.3,3.9,21.3,3.9,20.3z"/>
	<path class="st0" d="M8.7,19.3c0.9,0,0.9,0,0.9,0.9c0,1,0,1-1,1c-0.9,0-0.9,0-0.9-0.9C7.7,19.3,7.7,19.3,8.7,19.3z"/>
	<path class="st0" d="M13.5,20.3c0,0.9,0,0.9-0.9,0.9c-1,0-1,0-1-1c0-0.9,0-0.9,0.9-0.9C13.5,19.3,13.5,19.3,13.5,20.3z"/>
	<path class="st0" d="M17.4,43.5c0,2.7-2.2,4.8-4.8,4.8c-2.7,0-4.8-2.2-4.8-4.8c0-2.7,2.2-4.8,4.8-4.8
		C15.2,38.7,17.4,40.9,17.4,43.5z M12.6,40.6c-1.6,0-2.9,1.3-2.9,2.9c0,1.6,1.3,2.9,2.9,2.9c1.6,0,2.9-1.3,2.9-2.9
		C15.5,41.9,14.2,40.6,12.6,40.6z"/>
</g>
</svg>
