<?xml version="1.0" encoding="utf-8"?>
<!-- Generator: Adobe Illustrator 19.2.1, SVG Export Plug-In . SVG Version: 6.00 Build 0)  -->
<svg version="1.1" id="Слой_1" xmlns="http://www.w3.org/2000/svg" xmlns:xlink="http://www.w3.org/1999/xlink" x="0px" y="0px"
	 viewBox="0 0 80 80" style="enable-background:new 0 0 80 80;" xml:space="preserve">
<style type="text/css">
	.st0{fill:#333333;}
	.st1{fill:#FFB759;}
</style>
<path class="st0" d="M6.1,39.3c0.4,0,0.5-0.2,0.5-0.5c0-0.9,0-1.7,0-2.6c0-0.6,0.1-0.9,0.8-0.8c0.9,0,1.8,0.1,2.7-0.1
	c1.7-0.4,3-1.9,3.2-3.7c-0.7,0-1.3-0.1-2-0.3c-2-0.7-3.4-2.6-3.4-4.8c0-0.8,0-1.6,0-2.4c0-0.7-0.2-1.3-0.8-1.8
	c-0.1-0.2-0.3-0.3-0.5-0.4C2.7,19,0.9,15.3,1.6,10.5c0.7-4.8,3.5-8,8.1-9.4c4.8-1.4,9-0.1,12.3,3.7c3.1,3.6,3.7,9.1,0.8,13.7
	c-0.9,1.3-2,2.5-3.4,3.4c-0.8,0.5-1.1,1.3-1.2,2.3c0,0.7,0,1.4,0,2c0,2.5-1.2,4.2-3.5,5.1c-0.1,0-0.2,0.1-0.3,0.2c0.2,0,0.5,0,0.7,0
	c5,0,10,0,15,0c0.5,0,0.8,0.2,0.9,0.7c0.7,2.2,2.2,3.2,4.5,3.2c0.5,0,1,0,1.6,0c0.4,0,0.5,0.1,0.5,0.5c0,0.9,0,1.9,0,2.8
	c0,0.3-0.1,0.5,0.3,0.6c1.3,0,2.4,0.7,3.4,1.5c1.3,1.5,1.8,3.1,1.3,5.1c-0.1,0.4-0.2,0.9-0.5,1.2c-0.7,0.7-0.5,1.3-0.1,2
	c2.8,5,7.1,7.8,12.8,8.3c0.5,0,0.8,0,0.8-0.6c0-0.6,0.1-1.2,0.2-1.8c-0.6-0.1-1.2-0.1-1.8-0.2c-6.2-0.8-11.1-6.1-11.3-12.4
	c-0.2-6.2,4.3-11.8,10.4-13c6.9-1.4,13.6,3.1,15.1,10c1.5,6.6-2.7,13.4-9.4,15.1c-0.2,0-0.3,0.1-0.5,0.2c0.4,0.4,0.9,0.3,1.3,0.4
	c0.5,0.2,1.1,0.3,1.5,0.7c0.5,0.5,1,0.4,1.6,0.1c5.7-3.2,8.7-8.1,8.3-14.6c-0.4-6.5-3.9-11.2-10-13.6c-6.7-2.6-13.9-0.3-18,5.5
	c-0.1,0.1-0.2,0.2-0.3,0.3c-0.1-1.1-0.4-2.2-0.7-3.3c3-3.3,6.7-5.5,11.2-6c5.9-0.7,11.1,1,15.3,5.3c7.2,7.5,6.9,18.8-0.7,25.9
	c-1.2,1.1-2.5,2-3.9,2.7c-0.5,0.2-0.8,0.5-0.6,1.1c0.2,0.6,0,1.3,0,2c1.2-0.4,2.3-1,3.3-1.6c0.4-0.3,0.7-0.3,1.2-0.1
	c0.7,0.4,1.5,1.1,2.2,0.9c0.7-0.2,1.2-1,1.8-1.6c0.7-0.7,1.3-1.4,2.1-2c0.3-0.3,0.3-0.5,0.1-0.8c-1.2-1.5-1.1-2.9,0-4.5
	c1-1.4,1.4-3.2,1.8-4.9c0.1-0.5,0.3-0.7,0.8-0.8c0.6-0.2,1.2-0.4,1.8-0.6c0.4-0.1,0.5-0.3,0.5-0.7c0-1.6,0-3.2,0-4.8
	c0-0.4-0.1-0.6-0.5-0.7c-0.7-0.2-1.3-0.5-2-0.6c-0.3-0.1-0.5-0.3-0.6-0.6c-0.5-2.4-1.4-4.6-2.8-6.7c-0.2-0.3-0.3-0.6,0-1
	c0,0,0,0,0-0.1c0.3-0.7,1.1-1.5,1-2.2c-0.2-0.7-1.1-1.2-1.7-1.8c-0.7-0.7-1.3-1.3-2-2c-0.2-0.2-0.4-0.4-0.8-0.2
	c-0.8,0.4-1.6,1.1-2.4,1.1c-0.7,0-1.5-0.8-2.2-1.2c-1.5-0.8-3.1-1.4-4.8-1.7c-0.5-0.1-0.6-0.3-0.8-0.7c-0.3-0.8-0.3-1.9-0.9-2.2
	c-0.6-0.4-1.6-0.1-2.4-0.1c-0.9,0-1.8,0-2.7,0c-0.4,0-0.7,0.1-0.8,0.5c-0.3,1.8-1.2,2.8-3.1,3.1c-1.4,0.2-2.8,1-4.1,1.7
	c0.1-0.9-0.3-1.8-0.5-2.7c0.7-0.3,1.5-0.7,2.2-1c0.9-0.4,2-0.3,2.6-1c0.6-0.7,0.7-1.8,1-2.7c0.1-0.4,0.3-0.5,0.7-0.5
	c2.9,0,5.7,0,8.6,0c0.4,0,0.5,0.1,0.7,0.5c0.2,0.8,0.5,1.6,0.8,2.4c0.1,0.4,0.3,0.6,0.7,0.7c1.7,0.4,3.3,1.1,4.8,2
	c0.3,0.2,0.5,0.2,0.8,0c0.8-0.4,1.5-0.8,2.3-1.2c0.3-0.2,0.5-0.2,0.8,0.1c2,2.1,4.1,4.1,6.1,6.1c0.3,0.3,0.3,0.5,0.1,0.8
	c-0.4,0.7-0.7,1.5-1.1,2.2c-0.2,0.4-0.2,0.6,0,1c0.4,0.8,0.8,1.7,1.2,2.6c0.4,0.9,0.3,2,1,2.6c0.7,0.6,1.8,0.7,2.7,1
	c0.4,0.1,0.5,0.3,0.5,0.8c0,2.6-0.1,5.3,0,7.9c0,0.9-0.2,1.4-1.1,1.5c-0.6,0.1-1.1,0.4-1.7,0.6c-0.4,0.1-0.6,0.4-0.7,0.8
	c-0.4,1.6-1.1,3.1-1.9,4.6c-0.3,0.4-0.2,0.8,0,1.2c0.3,0.6,0.6,1.3,1,1.9c0.3,0.5,0.3,0.8-0.2,1.2c-1.9,1.9-3.8,3.7-5.6,5.6
	c-0.5,0.5-0.9,0.7-1.5,0.2c-1.5-1.1-2.9-1.3-4.5-0.1c-0.7,0.6-2,0.4-2.5,1.2c-0.5,0.7-0.4,1.8-0.6,2.7c-0.4,3-1.3,5.9-1.4,9
	c-0.1,2.6-2.4,4.7-4.9,4.7c-10.9,0-21.9,0-32.8,0c-4.5,0-8.4-3.8-8.6-8.3c-0.1-2.2,0-4.5-0.1-6.7c0-2.1,0-4.1,1.5-5.8
	c-4.5-1.2-7.6-3.9-8.8-8.4c-0.3-1.1-0.7-1.7-1.9-2c-3.6-0.9-5-5.5-2.2-8.5C3.8,40,4.9,39.4,6.1,39.3z M9.2,48.3c0,5.1,4,9.1,9.1,9.1
	c2.5,0,5.1,0,7.6,0c5,0,9-4,9-9c0-3.2,0-6.4,0-9.6c0-0.5-0.1-0.7-0.6-0.8c-2.2-0.2-3.9-1.4-5.1-3.2c-0.3-0.4-0.5-0.6-1-0.6
	c-4.2,0-8.3,0-12.5,0c-0.5,0-0.7,0.2-1,0.6c-1.2,1.9-2.9,3-5.1,3.2c-0.5,0.1-0.6,0.3-0.6,0.7c0,1.8,0,3.5,0,5.3c0,0,0,0,0,0
	C9.2,45.4,9.2,46.8,9.2,48.3z M65.9,41.9c0-5.7-4.7-10.3-10.3-10.3c-5.6,0-10.3,4.7-10.3,10.3c0,5.7,4.6,10.3,10.3,10.3
	C61.3,52.2,65.9,47.5,65.9,41.9z M11.8,16.4c0-0.4-0.1-0.6-0.5-0.8c-1.7-0.9-2.5-2.6-2-4.4c0.4-1.7,2-2.9,3.7-2.9
	c1.8,0,3.3,1.2,3.8,2.9c0.5,1.7-0.3,3.5-2,4.4c-0.3,0.2-0.4,0.4-0.4,0.7c0,2.3,0,4.6,0,6.9c0,0.3,0,0.6,0.4,0.5
	c0.3-0.1,0.8,0.3,0.9-0.5c0.2-1.6,1.1-2.8,2.5-3.8c3.4-2.3,4.7-6.6,3.3-10.5c-1.5-4-5.3-6.3-9.7-5.9c-3.8,0.4-7.1,3.6-7.7,7.5
	c-0.5,3.5,0.6,6.4,3.5,8.6c1.4,1.1,2.6,2.2,2.8,4.1c0.1,0.6,0.6,0.3,0.9,0.4c0.4,0.1,0.4-0.2,0.4-0.5c0-1.2,0-2.4,0-3.6
	C11.7,18.6,11.7,17.5,11.8,16.4z M33.4,78c1.2,0,1.6-0.4,1.6-1.6c0-1.5,0-3,0-4.5c0-1.1-0.5-1.6-1.6-1.6c-2.1,0-4.1,0-6.2,0
	c-0.4,0-0.7,0.1-0.9,0.5c-0.5,0.8-1,1.5-1.5,2.3c-0.2,0.4-0.4,0.5-0.8,0.2c-0.5-0.4-1.3-0.7-1.5-1.1c-0.2-0.5,0.5-1.1,0.9-1.6
	c1-1.2,1.5-2.6,1.3-4.2c-0.1-0.8,0-1.6,0-2.4c-0.1-2.2-1.7-3.9-3.9-3.9c-2.2,0-3.8,1.7-3.8,4c0,2.5,0,5,0,7.5c0,3.7,2.8,6.5,6.5,6.6
	c1.6,0,3.2,0,4.8,0C29.9,78,31.7,78,33.4,78z M34.4,65.8c0.1,0.2,0.2,0.5,0.2,0.7c0.3,1.1,0.3,1.1,1.4,1.1c1.7,0,3.4,0,5.1,0
	c2.5,0,4.1,1.7,4.1,4.1c0,1,0,1,1,1c2.1,0,4.1,0,6.2,0c0.5,0,0.8-0.1,0.8-0.7c0.1-1.3,0.3-2.6,0.6-3.9c0.1-0.5,0-0.7-0.5-0.6
	c-0.6,0-1.2,0-1.9,0c-0.5,0-0.7-0.1-0.9-0.6c-0.2-0.8-0.5-1.5-0.7-2.3c-0.1-0.3-0.3-0.5-0.6-0.6c-1.7-0.5-3.3-1.1-4.9-2
	c-0.3-0.2-0.6-0.2-0.9,0c-0.7,0.4-1.4,0.7-2.1,1.1c-0.4,0.3-0.7,0.2-1.1-0.2c-1.9-2-3.9-3.9-5.8-5.9c-0.4-0.4-0.6-0.5-1-0.1
	c-1.2,1.1-2.7,1.9-4.3,2.4C31.7,61,33.5,63,34.4,65.8z M54.3,59.9c-2.2-0.2-4.3-0.7-6.3-1.6c-3.8-1.8-6.6-4.5-8.5-8.2
	c-0.1-0.3-0.1-0.8-0.7-0.6c-0.5,0.2-1.4-0.2-1.5,0.9c-0.1,1.4-0.7,2.7-1.5,3.9c-0.2,0.3-0.2,0.5,0.1,0.8c1.7,1.6,3.3,3.3,5,5
	c0.3,0.3,0.5,0.3,0.8,0.1c0.8-0.4,1.5-1.1,2.3-1c0.8,0,1.5,0.8,2.2,1.1c1.5,0.8,3.1,1.4,4.8,1.7c0.5,0.1,0.7,0.3,0.8,0.8
	c0.2,0.6,0.4,1.2,0.6,1.8c0.1,0.5,0.4,0.5,0.8,0.6c0.8,0.1,1.1-0.2,1.2-1c0.1-1.3,0.4-2.6,0.6-3.9C55,59.7,54.6,59.9,54.3,59.9z
	 M38.2,75.4c-0.5,0-0.8,0.1-0.7,0.7c0,0.3,0,0.6,0,0.9c0,0.3-0.2,0.8-0.1,0.9c0.3,0.3,0.7,0.1,1.1,0.1c5.6,0,11.1,0,16.7,0
	c1.5,0,2.4-0.6,2.8-1.8c0.2-0.6,0.1-0.8-0.6-0.8c-3.2,0-6.4,0-9.7,0C44.6,75.4,41.4,75.4,38.2,75.4z M58.6,71.6
	c0.7-3.8,1.4-7.6,2.1-11.4c0.3-1.5-0.7-2.7-2.1-2.8c-0.4,0-0.6,0-0.6,0.5c-0.7,4.9-1.4,9.7-2.1,14.6c-0.1,0.4,0,0.5,0.4,0.5
	c0.3,0,0.6,0,0.9,0C58.4,72.8,58.4,72.8,58.6,71.6z M27.2,66.8c0,0.7,0.2,0.9,0.9,0.8c1.2-0.1,2.4,0,3.7,0c0.4,0,0.6-0.1,0.5-0.5
	c-0.8-2.8-2.5-4.8-5.4-5.9C27.5,63.2,27.2,65,27.2,66.8z M37.5,72.3c0,0.4,0.1,0.5,0.5,0.5c1.4,0,2.8,0,4.2,0c0.3,0,0.5,0,0.5-0.4
	c-0.1-0.5,0.1-1-0.1-1.5c-0.2-0.4-0.5-0.6-1-0.7c-0.2,0-0.4,0-0.6,0c-1.2,0-2.4,0-3.6,0C37.6,71,37.6,71.6,37.5,72.3z M37.5,46.6
	c0,0.4,0.1,0.4,0.5,0.4c1.1-0.1,2.2-1.4,2.1-2.6c0-1.2-1.1-2.4-2.2-2.5c-0.4,0-0.3,0.2-0.3,0.4c0,0.7,0,1.4,0,2.1
	C37.5,45.1,37.6,45.9,37.5,46.6z M11,26.4c-0.5,0-0.5,0.2-0.4,0.6c0.2,1.2,1.4,2.1,2.6,2c1.2,0,2.3-1.1,2.5-2.2
	c0-0.3-0.1-0.4-0.4-0.4c-0.7,0-1.5,0-2.2,0C12.4,26.4,11.7,26.4,11,26.4z M6.6,42.3c0-0.5-0.1-0.5-0.5-0.4c-1.2,0.3-2,1.2-2,2.4
	c0,1.2,0.7,2.2,1.9,2.6c0.5,0.1,0.8,0.1,0.7-0.6c-0.1-0.6,0-1.3,0-1.9C6.6,43.7,6.6,43,6.6,42.3z M11.8,12.2c0,0.7,0.6,1.3,1.3,1.3
	c0.7,0,1.3-0.6,1.3-1.3c0-0.7-0.6-1.3-1.3-1.3C12.4,10.9,11.8,11.5,11.8,12.2z"/>
<g>
	<path class="st1" d="M2.9,40.8c0.9-0.9,2-1.4,3.2-1.5c0.4,0,0.5-0.2,0.5-0.5c0-0.9,0-1.7,0-2.6c0-0.6,0.1-0.9,0.8-0.8
		c0.9,0,1.8,0.1,2.7-0.1c1.7-0.4,3-1.9,3.2-3.7c-0.7,0-1.3-0.1-2-0.3c-2-0.7-3.4-2.6-3.4-4.8c0-0.8,0-1.6,0-2.4
		c0-0.7-0.2-1.3-0.8-1.8c-2,1.5-3.4,3.4-4.3,5.7C1,32,1,36.1,2.7,40.2C2.8,40.4,2.8,40.6,2.9,40.8z"/>
	<g>
		<path class="st1" d="M42.7,33.3c-0.1-1.1-0.4-2.2-0.7-3.3c-0.2-0.3-0.3-0.6-0.5-0.9c-0.3-0.5-0.3-0.7,0.3-0.9
			c0.9-0.2,1.6-0.8,2.2-1.4c0.7-0.8,1-1.8,1.2-2.8c0.1-0.9-0.3-1.8-0.5-2.7c-0.1-0.1-0.3-0.3-0.4-0.4c-1.1-1.5-2.5-2.2-4.4-2.2
			c-5.5,0-10.9,0-16.4,0c-0.3,0-0.7,0.1-1-0.1c-0.9,1.3-2,2.5-3.4,3.4c-0.8,0.5-1.1,1.3-1.2,2.3c0,0.7,0,1.4,0,2
			c0,2.5-1.2,4.2-3.5,5.1c-0.1,0-0.2,0.1-0.3,0.2c0.2,0,0.5,0,0.7,0c5,0,10,0,15,0c0.5,0,0.8,0.2,0.9,0.7c0.7,2.2,2.2,3.2,4.5,3.2
			c0.5,0,1,0,1.6,0c0.4,0,0.5,0.1,0.5,0.5c0,0.9,0,1.9,0,2.8c0,0.3-0.1,0.5,0.3,0.6c1.3,0,2.4,0.7,3.4,1.5c0.7-1.1,1.1-2.3,1.3-3.5
			C42.8,35.9,42.6,34.6,42.7,33.3z"/>
		<path class="st1" d="M65.9,5.8c2.1,0,3.9,1.8,3.9,3.9c0,2.1-1.8,3.9-3.9,3.9c-2.1,0-3.9-1.8-3.9-3.9C62,7.5,63.8,5.7,65.9,5.8z
			 M67.2,9.6c0-0.7-0.6-1.3-1.3-1.3c-0.7,0-1.3,0.6-1.3,1.3c0,0.7,0.6,1.3,1.3,1.3C66.6,10.9,67.2,10.3,67.2,9.6z"/>
		<path class="st1" d="M59.5,9.6c0,2.1-1.7,3.9-3.8,3.9c-2.1,0-3.9-1.7-3.9-3.8c0-2.1,1.7-3.9,3.8-3.9C57.7,5.7,59.4,7.5,59.5,9.6z
			 M56.9,9.6c0-0.7-0.6-1.3-1.3-1.3c-0.7,0-1.3,0.6-1.3,1.3c0,0.7,0.6,1.3,1.3,1.3C56.3,10.9,56.9,10.3,56.9,9.6z"/>
		<path class="st1" d="M49.2,9.7c0,2.1-1.8,3.9-3.9,3.8c-2.1,0-3.8-1.8-3.8-3.9c0-2.1,1.8-3.8,3.9-3.8C47.4,5.8,49.2,7.6,49.2,9.7z
			 M44,9.7c0,0.7,0.6,1.3,1.3,1.3c0.7,0,1.3-0.6,1.3-1.3c0-0.7-0.6-1.3-1.3-1.2C44.5,8.4,44,8.9,44,9.7z"/>
	</g>
</g>
<path class="st0" d="M22.1,54.8c2.6,0,5.2-1.7,6.2-4.2c0.2-0.5,0.1-0.7-0.4-0.8c-0.1,0-0.2,0-0.2-0.1c-0.5-0.2-1-0.5-1.5-0.4
	c-0.5,0-0.5,0.8-0.8,1.1c-1.8,2.6-5.7,2.2-7-0.6c-0.2-0.5-0.4-0.6-0.9-0.4c-0.2,0.1-0.4,0.1-0.6,0.2c-1.3,0.4-1.3,0.4-0.7,1.7
	C17.4,53.4,19.7,54.8,22.1,54.8z"/>
<path class="st0" d="M11.8,44.5c0.2,0,0.5,0,0.7,0c0.4,0.1,0.5-0.1,0.6-0.5c0.3-1.3,1.3-2.1,2.5-2.1c1.2,0,2.2,0.8,2.5,2.1
	c0.1,0.4,0.2,0.5,0.5,0.5c0.5,0,1,0,1.6,0c0.5,0,0.6-0.1,0.5-0.6c-0.3-2.4-2.2-4.4-4.5-4.6c-2.6-0.2-4.8,1.2-5.6,3.6
	C10.2,44.4,10.3,44.5,11.8,44.5z"/>
<path class="st0" d="M32.3,44.5c1.6,0,1.6-0.1,1.2-1.5c-0.7-2.4-3-3.9-5.6-3.6c-2.3,0.2-4.2,2.2-4.5,4.5c-0.1,0.5,0,0.7,0.5,0.6
	c0.2,0,0.4,0,0.5,0c0.8,0.1,1.5,0.1,1.7-1.1c0.2-1,1.2-1.5,2.3-1.5c1,0,2.1,0.6,2.3,1.6C31.1,44.5,31.6,44.6,32.3,44.5z"/>
</svg>
