<?xml version="1.0" encoding="utf-8"?>
<!-- Generator: Adobe Illustrator 19.2.1, SVG Export Plug-In . SVG Version: 6.00 Build 0)  -->
<svg version="1.1" id="Слой_1" xmlns="http://www.w3.org/2000/svg" xmlns:xlink="http://www.w3.org/1999/xlink" x="0px" y="0px"
	 viewBox="0 0 80 80" style="enable-background:new 0 0 80 80;" xml:space="preserve">
<style type="text/css">
	.st0{fill:#333333;}
	.st1{fill:#FFB759;}
</style>
<g>
	<path class="st0" d="M52.8,28.2c1.4,2,1.9,4.1,1,6.5c-0.6,1.4-1.6,2.5-2.9,3.3c-0.3,0.2-0.5,0.4-0.5,0.8c0,2.2,0.1,2.6,2.5,2.6
		c6.8-0.1,13.7,0,20.5,0c3,0,5,3,3.6,5.6c-0.7,1.5-2,2.2-3.6,2.2c-3.2,0-6.5,0-9.7,0c-1.5,0-2.1,0.9-1.8,2.3
		c0.1,0.4,0.5,0.3,0.7,0.3c4.4,0,8.7,0,13.1,0c0.5,0,1,0,1.6,0c1.6,0,2.7,1.1,2.7,2.7c0,6.8,0,13.7,0,20.5c0,2.8-2.3,5.1-5.1,5.1
		c-11.2,0-22.4,0-33.6,0c-1.7,0-3-0.7-4-2c-0.3-0.5-0.7-0.6-1.2-0.6c-8.3,0-16.6,0-24.8,0c-0.7,0-0.9-0.2-0.9-0.9c0-5.5,0-11,0-16.5
		c0-0.6,0.2-0.8,0.7-0.7c0.7,0,1.6,0.2,2.2-0.1c0.6-0.3,0.5-1.3,0.8-1.9c1.6-4.1,4.3-7.1,8.2-9.2c-0.4-0.2-0.7-0.3-1-0.5
		c-3.7-1.7-6.2-4.5-7.5-8.3c-0.2-0.5-0.4-0.7-0.9-0.7c-1.1,0.1-2.2,0-3.2-0.3c-4.6-1.6-5.9-7.5-2.3-10.8c0.4-0.4,0.5-0.7,0.5-1.3
		c0-2.4-0.1-4.8,0.2-7.3c1.1-8.7,7.4-15.9,16-18.3c8.6-2.4,17.9,0.8,23.2,7.9c0.2,0.2,0.3,0.5,0.6,0.6c1.2-2.6,3-4.8,5.3-6.5
		C61.2-3,73,0.6,76.4,10.1c3.3,9.1-2.2,18.9-11.8,20.7c-4,0.7-7.7-0.1-11.1-2.3c-0.2-0.1-0.4-0.3-0.7-0.4c-0.1-0.1-0.2-0.1-0.2,0
		C52.6,28,52.7,28.1,52.8,28.2z M39.7,72.2c2.1,0,4.2,0,6.3,0c0.5,0,0.4-0.3,0.4-0.6c0-3,0-6.1,0-9.1c0-0.5-0.1-0.6-0.6-0.6
		c-2.8,0-5.6,0-8.4,0c-3.3,0-5.9,2.3-6.3,5.5c-0.3,2.3-0.1,4.7-0.1,7c0,0.4,0.3,0.3,0.5,0.3c1.2,0,2.4,0,3.7,0c0.7,0,1-0.1,1-0.9
		c-0.1-1.6,0-1.6,1.5-1.7C38.4,72.3,39,72.3,39.7,72.2z M13,24.3c0.3-1,0.7-2,1.3-2.9c1.9-2.7,4.9-3.8,8-2.9
		c1.2,0.3,2.4,0.6,3.5,0.9c4.6,1,9.3,1.3,14,1.3c3,0,5.4,1.8,6.3,4.6c0.1,0.2,0,0.4,0.2,0.5c0.8,0.1,1.7-0.1,2.6,0.2
		c0-2.5,0.1-4.8-0.3-7.2C47.2,8.3,36.7,0.9,26.3,2.9C16.7,4.7,9,13.1,10.4,25.9c0.4,0,0.7-0.1,1.1-0.1C12.9,25.8,12.9,25.8,13,24.3z
		 M15.5,30.9c0.1,1.7-0.1,3.7,0.1,5.7c0.6,4.8,4.8,9,9.5,9.7c2.2,0.3,4.4,0.1,6.6,0.2c6.6,0.3,12.3-5.1,12.1-12.1
		c-0.1-2.2-0.1-4.5,0-6.7c0.1-2.5-1.7-4.4-4.4-4.4c-6.3,0.2-12.6-0.6-18.6-2.4c-0.4-0.1-0.7-0.1-1.1-0.1c-2.6,0.5-4.3,2.5-4.4,5.2
		C15.5,27.5,15.5,29,15.5,30.9z M74.8,15.3c0-0.4-0.1-1-0.1-1.6C73.9,7.9,68.9,3.1,63.1,2.7c-6.3-0.5-11.9,3.4-13.5,9.3
		c-0.1,0.3-0.1,0.6,0.1,1c1.4,3.1,2.1,6.3,2,9.7c0,0.4,0.1,0.8,0.4,1.1c3.4,4.2,9.1,5.8,14.1,4C71.4,25.8,74.8,21,74.8,15.3z
		 M37.2,48.2c3.9,2,6.7,5.1,8.2,9.2c0.2,0.6,0.3,1.6,0.7,1.9c0.5,0.3,1.4,0.1,2.1,0.1c0.6,0,0.8,0.1,0.8,0.8c0,3.5,0,6.9,0,10.4
		c0,1.7,0,1.7,1.7,1.7c0.7,0,0.8-0.2,0.8-0.9c0-5.6,0-11.2,0-16.9c0-1.9,1-2.9,3-2.9c1.3,0,2.6-0.1,3.8,0c0.8,0,1-0.2,1-1
		c-0.1-2.6,1.6-4.2,4.2-4.2c2.2,0,4.4,0,6.6,0c1.2,0,2.3,0,3.5,0c0.7,0,1.2-0.6,1.2-1.3c0-0.7-0.5-1.2-1.2-1.2c-0.3,0-0.5,0-0.8,0
		c-7,0-14,0-21,0c-2,0-3.5-1.1-4-2.9c-0.2-0.6-0.1-1.2-0.1-1.8c0-0.2,0.1-0.5-0.1-0.5c-0.5-0.1-1-0.1-1.6,0c-0.4,0-0.3,0.5-0.4,0.7
		c-1.4,3.9-4,6.7-7.8,8.4C37.7,47.9,37.4,48.1,37.2,48.2z M77.4,63.3c0-2.8,0-5.6,0-8.4c0-0.5-0.1-0.7-0.6-0.7c-5.6,0-11.2,0-16.9,0
		c-0.5,0-0.6,0.2-0.6,0.6c0,5.6,0,11.2,0,16.9c0,0.5,0.1,0.6,0.6,0.6c5.6,0,11.2,0,16.8,0c0.6,0,0.7-0.2,0.7-0.7
		C77.4,68.8,77.4,66,77.4,63.3z M16.1,59.4c1.9,0,3.6,0,5.4,0c3.3-0.1,6,1.2,7.9,4c0.3,0.4,0.4,0.3,0.6,0c1.9-2.7,4.6-4,7.9-3.9
		c1.8,0,3.6,0,5.4,0c-1-3.5-3-6.2-6.1-8.1c-0.6,2.3-1.1,4.5-1.7,6.6c-0.1,0.1-0.2,0.1-0.3,0.2c-1.4-1.5-2.9-2.9-4.3-4.4
		c0,0,0,0,0,0.1c0,1.2,0,2.5,0,3.7c0,1.9,0,1.9-2,1.9c-0.5,0-0.6-0.1-0.6-0.6c0-1.6,0-3.1,0-4.7c0-0.2,0.1-0.4-0.2-0.5
		c-1.4,1.4-2.9,2.9-4.3,4.4c-0.6-2.3-1.1-4.5-1.7-6.7C19.1,53.2,17.1,55.9,16.1,59.4z M20.7,74.8c2.4,0,4.7,0,7.1,0
		c0.4,0,0.6,0,0.6-0.5c0-2,0-4.1,0-6.1c-0.1-3.3-2.5-5.9-5.8-6.2c-3.1-0.3-6.2,0-9.3-0.1c-0.5,0-0.4,0.3-0.4,0.6c0,3.9,0,7.8,0,11.7
		c0,0.5,0.2,0.6,0.6,0.6C15.9,74.8,18.3,74.8,20.7,74.8z M56.8,63.2c0-2.4,0-4.8,0-7.2c0-1.8,0-1.8-1.9-1.8c-0.6,0-0.7,0.2-0.7,0.7
		c0,5.2,0,10.3,0,15.5c0,1.9,0,1.9,1.9,1.9c0.6,0,0.7-0.2,0.7-0.7C56.7,68.8,56.8,66,56.8,63.2z M58.7,77.4c0.2,0,0.4,0,0.6,0
		c5.1,0,10.2,0,15.3,0c0.3,0,0.5,0,0.8-0.1c1-0.2,1.9-1.1,2-2.1c0-0.3,0-0.5-0.4-0.5c-0.6,0-1.2,0-1.9,0c-5,0-10,0-15.1,0
		c-0.2,0-0.6-0.2-0.7,0.2C59.3,75.9,59,76.6,58.7,77.4z M47.8,74.8c-2.8,0-5.6,0-8.3,0c-0.7,0-0.8,0.3-0.6,0.8
		c0.4,1.1,1.3,1.8,2.6,1.8c2.4,0,4.8,0,7.2,0c1.8,0,3.6,0,5.5,0c1.2,0,2.2-0.7,2.5-1.8c0.2-0.5,0.1-0.8-0.6-0.8
		C53.3,74.9,50.5,74.8,47.8,74.8z M13,32.3C13,32.3,12.9,32.3,13,32.3c0-0.8,0-1.7,0-2.5c0-1.4,0-1.4-1.5-1.4
		c-2.6,0.1-4.4,2.7-3.5,5.2c0.7,1.8,2.9,3,4.8,2.5c0.4-0.1,0.2-0.4,0.2-0.6C13,34.5,13,33.4,13,32.3z M46.4,32.3c0,0.8,0,1.6,0,2.4
		c0,1.5,0,1.5,1.4,1.4c2.6-0.1,4.3-2.6,3.5-5.1c-0.6-1.9-2.8-3.1-4.7-2.6c-0.4,0.1-0.3,0.3-0.3,0.5C46.4,30,46.4,31.2,46.4,32.3z
		 M29,49.1c-1.4,0.1-2.8,0.3-4.1,0.8c-0.2,0.1-0.4,0.2-0.3,0.5c0.2,0.8,0.4,1.7,0.7,2.5C26.5,51.6,27.7,50.4,29,49.1z M30.5,49.1
		c1.2,1.2,2.4,2.4,3.7,3.6c0.2-0.7,0.4-1.5,0.6-2.4c0.1-0.3,0-0.4-0.2-0.5C33.2,49.4,31.9,49.1,30.5,49.1z"/>
	<path class="st0" d="M13,45.2c-0.1,1.2-0.1,1.2-1.4,1.2c-3.8,0-7.7,0-11.5,0c0-0.7,0-1.4,0-2.1c0-0.3,0.1-0.4,0.4-0.4c4,0,8,0,12,0
		c0.4,0,0.5,0.1,0.5,0.5C12.9,44.6,12.9,44.9,13,45.2z"/>
	<path class="st0" d="M0,54.2c4,0,8,0,12,0c0.8,0,1,0.2,0.9,0.9c0,0.1,0,0.2,0,0.3c-0.1,1.3-0.1,1.3-1.4,1.3c-3.6,0-7.2,0-10.8,0
		C0.1,56.8,0,56.6,0,56C0.1,55.4,0,54.8,0,54.2z"/>
	<path class="st0" d="M0,49c4.1,0,8.2,0,12.2,0c0.5,0,0.6,0.2,0.6,0.7c0,1.9,0,1.9-1.9,1.9c-3.7,0-7.3,0-11,0C0,50.7,0,49.9,0,49z"
		/>
	<path class="st0" d="M23.2,37.4c0-1.3,0-1.3,1.2-1.3c3.6,0,7.3,0,10.9,0c0.6,0,0.7,0.2,0.7,0.7c0.2,3.7-2.2,6-4.5,6.7
		C27.5,44.9,23.3,41.8,23.2,37.4z M33.3,38.8c-2.4,0-4.7,0-7.1,0c0.5,1.5,1.9,2.5,3.5,2.5C31.3,41.3,32.7,40.3,33.3,38.8z"/>
	<path class="st0" d="M40,31c-0.2,0-0.5,0-0.7,0c-0.4,0-0.5-0.1-0.6-0.5c-0.3-1.4-1.2-2.1-2.5-2.1c-1.3,0-2.2,0.8-2.5,2.2
		c-0.1,0.3-0.2,0.4-0.5,0.4c-0.6,0-1.2,0-1.8,0C31,31,31,30.8,31,30.5c0.2-2.5,2.4-4.6,5-4.7c2.6-0.1,4.9,1.9,5.3,4.4
		c0.1,0.6-0.1,0.9-0.7,0.8C40.3,30.9,40.2,31,40,31z"/>
	<path class="st0" d="M27.1,31c-0.2,0-0.4,0-0.6,0c-0.5,0.1-0.6-0.1-0.7-0.6c-0.2-1.2-1.3-2-2.5-2c-1.2,0-2.2,0.7-2.5,1.9
		C20.6,30.8,20.5,31,20,31c-0.4-0.1-0.8,0-1.2,0c-0.6,0.1-0.7-0.1-0.7-0.7c0.3-2.5,2.7-4.5,5.3-4.4c2.6,0.1,4.9,2.3,5,4.8
		c0,0.3-0.1,0.4-0.4,0.4C27.7,30.9,27.4,31,27.1,31z"/>
	<path class="st0" d="M72.2,60.6c0,2.1-1.7,3.9-3.9,3.9c-2.1,0-3.9-1.7-3.9-3.9c0-2.1,1.8-3.9,3.9-3.9
		C70.5,56.8,72.3,58.5,72.2,60.6z M69.7,60.6c0-0.7-0.6-1.3-1.3-1.3c-0.7,0-1.3,0.6-1.3,1.3c0,0.7,0.6,1.3,1.3,1.3
		C69.1,61.9,69.7,61.3,69.7,60.6z"/>
	<g>
		<path class="st1" d="M0,49c0-0.9,0-1.8,0-2.6c3.8,0,7.7,0,11.5,0c1.3,0,1.3,0,1.4-1.2c0,2.1,0,4.3,0,6.4c0,1.3,0,2.5,0,3.8
			c0-0.1-0.1-0.2,0-0.3c0.1-0.7-0.2-0.9-0.9-0.9c-4,0-8,0-12,0c0-0.9,0-1.8,0-2.6c3.7,0,7.3,0,11,0c1.9,0,1.9,0,1.9-1.9
			c0-0.5-0.1-0.7-0.6-0.7C8.2,49.1,4.1,49,0,49z"/>
		<path class="st1" d="M46.4,25.7c-0.3-0.1-0.2-0.3-0.2-0.5c-0.9-2.8-3.3-4.6-6.3-4.6c-4.7,0.1-9.4-0.3-14-1.3
			c-1.2-0.3-2.4-0.6-3.5-0.9c-3.1-0.9-6.2,0.2-8,2.9c-0.6,0.9-0.9,1.9-1.3,2.9c-0.1-1.8-0.1-3.6,0.2-5.4C14.8,10.2,23,4.3,31.5,5.3
			C38.3,6,44.3,11.2,46,17.8C46.6,20.5,46.4,23.1,46.4,25.7z"/>
		<path class="st1" d="M37.7,72.2c-1.3-0.6-2.4-1.5-2.7-3c-0.3-1.5,0.1-2.8,1.3-3.8c1.2-1,2.6-1.2,4.1-0.6c1.4,0.6,2.2,1.7,2.2,3.2
			c0.1,1.9-0.7,3.2-2.5,4c-0.1,0-0.2,0.1-0.3,0.2C39,72.3,38.4,72.3,37.7,72.2z"/>
		<path class="st1" d="M54.2,15.5c0-2.1,0-4.1,0-6.2c0-1.3,0.9-1.9,2.1-1.3c4.2,2.1,8.3,4.2,12.5,6.2c0.5,0.3,0.9,0.7,0.9,1.3
			c0,0.6-0.4,1-0.9,1.2c-4.1,2.1-8.3,4.1-12.4,6.2c-1.3,0.6-2.1,0.1-2.1-1.4C54.2,19.6,54.2,17.5,54.2,15.5z"/>
		<path class="st1" d="M25.8,67.1c0,0.9,0,1.8,0,2.6c-3.4,0-6.9,0-10.3,0c0-0.9,0-1.8,0-2.6C18.9,67,22.4,67,25.8,67.1z"/>
	</g>
	<path class="st0" d="M25.8,67.1c-3.4,0-6.9,0-10.3,0c0-0.7,0-1.4,0-2c0-0.4,0.1-0.5,0.5-0.5c3.1,0,6.2,0,9.3,0
		c0.4,0,0.5,0.1,0.5,0.5C25.8,65.7,25.8,66.4,25.8,67.1z"/>
	<path class="st0" d="M15.5,69.7c3.4,0,6.9,0,10.3,0c0,0.8,0.3,1.9-0.1,2.4c-0.4,0.5-1.5,0.1-2.3,0.1c-2.4,0-4.8,0-7.2,0
		c-0.5,0-0.8-0.1-0.7-0.7C15.5,70.9,15.5,70.3,15.5,69.7z"/>
</g>
</svg>
