<?xml version="1.0" encoding="utf-8"?>
<!-- Generator: Adobe Illustrator 19.2.1, SVG Export Plug-In . SVG Version: 6.00 Build 0)  -->
<svg version="1.1" id="Слой_1" xmlns="http://www.w3.org/2000/svg" xmlns:xlink="http://www.w3.org/1999/xlink" x="0px" y="0px"
	 viewBox="0 0 100 100" style="enable-background:new 0 0 100 100;" xml:space="preserve">
<style type="text/css">
	.st0{fill:#333333;}
	.st1{fill:#FFB759;}
</style>
<g>
	<path class="st0" d="M93.4,21.9c0,7.9,0,15.8,0,23.6c0,8.9,0,17.8,0,26.6c0,5-3.4,8.5-8.4,8.5c-7,0-14.1,0-21.1,0
		c-0.8,0-1,0.2-0.8,1c0.3,1.1,0.7,2.2,1.4,3.2c1,1.5,2.2,2.6,4.3,2.3c1.3-0.2,2.7-0.1,4,0.2c4,0.9,7,5.3,6.1,9
		c-0.6,2.2-2.4,3.7-4.6,3.7c-16.1,0-32.2,0-48.4,0c-3,0-5.1-2.6-4.7-5.7c0.5-4.1,3.9-7.1,8-7.1c1,0,2.1-0.1,3.1,0
		c1,0.1,1.6-0.3,2.3-1c1.4-1.5,2.4-3.3,2.6-5.5c-0.6,0-1.1,0-1.7,0c-6.8,0-13.6,0-20.4,0c-5,0-8.4-3.4-8.4-8.4c0-9.7,0-19.4,0-29.1
		c0-0.8-0.1-1.1-1-1.3C2.2,41.5,0,38.8,0,35.5c0-3.2,0-6.3,0-9.5c0-3.7,2.8-6.5,6.5-6.5c5-0.1,10,0.2,15-0.2
		c4.6-0.3,9.1-1.2,13.5-2.5c0.4-0.1,0.6-0.4,0.8-0.8c0.9-2,2.4-3,4.6-3c0.8,0,1.7,0,2.5,0c3.1,0,5,1.7,5.4,4.8c0,5.6,0,11.3,0,16.9
		c0,2.9,0,5.8,0,8.7c0,2-0.9,3.5-2.6,4.4c-0.5,0.2-0.6,0.5-0.6,1c0,5,0,10,0,15c0,0.6,0.1,0.7,0.7,0.7c1.7,0,3.3,0,5,0
		c0.6,0,0.7-0.1,0.7-0.7c0-10.5,0-21,0-31.5c1.4-1,1.4-1.1,2.5,0.3c0.3,0.3,0.5,0.6,0.8,0.9c0,10.1,0,20.2,0,30.3
		c0,0.6,0.2,0.6,0.7,0.6c1.5,0,3-0.1,4.5,0c1,0.1,1.3-0.2,1.3-1.2c0-7.4,0-14.8,0-22.2c0.6,0.4,0.9,1.4,1.5,1.4
		c0.6-0.1,1.1-0.8,1.7-1.3c0,0.4,0,0.7,0,1.1c0,7.1,0,14.3,0,21.4c0,0.6,0.1,0.9,0.8,0.9c1.6-0.1,3.3,0,4.9,0c0.5,0,0.8,0,0.8-0.7
		c0-9.4,0-18.9,0-28.3c1-1,2.1-2,3.2-2.8c0,0.4,0,0.7,0,1.1c0,9.9,0,19.8,0,29.8c0,0.8,0.2,1,1,1c1.6-0.1,3.2-0.1,4.7,0
		c0.6,0,0.8-0.2,0.8-0.8c0-2.3,0-4.6,0-6.8c0-10,0-19.9,0-29.9c1-1.1,2.1-1.9,3.2-2.9c0,0.6,0,1.3,0,1.9c0,12.5,0,25,0,37.5
		c0,0.9,0.3,1,1.1,1c1.4-0.1,2.8-0.1,4.2,0c0.9,0.1,1.2-0.1,1.2-1.2c-0.1-6.3,0-12.7,0-19c0-8.6,0-17.2,0-25.7
		C91.3,19.7,92.4,20.8,93.4,21.9z M49.9,67.8c-1.6,0-3.3,0-4.9,0c-11.5,0-22.9,0-34.4,0c-0.8,0-1,0.2-1,1c0.1,1.3,0,2.6,0,3.9
		c0,2.6,2.1,4.7,4.7,4.8c0.8,0,1.6,0,2.4,0c22.7,0,45.3,0,68,0c3.4,0,5.3-2,5.3-5.3c0-1.1-0.1-2.2,0-3.3c0.1-0.9-0.2-1.1-1.1-1.1
		C76,67.8,63,67.8,49.9,67.8z M9.7,60.9c0,1,0.1,1.9,0,2.9c0,0.7,0.2,0.8,0.8,0.8c10.2,0,20.3,0,30.5,0c0.8,0,0.9-0.2,0.9-0.9
		c0-4.7,0-9.4,0-14.1c0-0.9-0.2-1.2-1.1-1.1c-2.2,0.1-3.9-0.8-4.9-2.8c-0.3-0.6-0.6-0.8-1.2-1c-4.8-1.4-9.6-2.2-14.6-2.5
		c-0.7,0-0.8,0.1-0.8,0.7c0,2.3,0,4.7,0,7c0,0.6,0.1,0.9,0.6,1.2c2,1.2,2.9,3.5,2.5,5.7c-0.5,2.4-2.3,4.3-4.7,4.5
		C15.1,61.5,12.4,61.7,9.7,60.9z M49.9,96.8c7.9,0,15.8,0,23.7,0c1.6,0,2.2-0.8,2-2.4c-0.4-2.4-2.4-4-4.8-4c-13.9,0-27.9,0-41.8,0
		c-2.3,0-4.2,1.6-4.7,3.9c-0.4,1.7,0.3,2.6,2,2.6C34.2,96.8,42,96.8,49.9,96.8z M35.4,20.1c-4,1.2-8.1,2-12.2,2.3
		c-0.6,0.1-0.7,0.3-0.7,0.8c0,1.5,0,3.1,0,4.6C22.4,32,19,35.4,15,35.6c-0.7,0-1.6-0.3-2,0.2c-0.3,0.5,0,1.4-0.1,2
		c-0.1,0.9,0.2,1,1,1c4.5-0.1,9,0.1,13.4,0.8c2.7,0.4,5.4,1.1,8.1,1.8C35.4,34.4,35.4,27.3,35.4,20.1z M12.6,22.7
		C12.6,22.7,12.6,22.8,12.6,22.7c-2,0-4.1,0-6.1,0c-1.8,0-3.2,1.4-3.2,3.2c0,3.2,0,6.5,0,9.7c0,1.8,1.4,3.1,3.2,3.2
		c0.8,0,1.7,0,2.5,0c0.6,0,0.7-0.1,0.7-0.7c0-1.7,0-3.3,0-5c0-0.6,0.1-0.7,0.7-0.7c1.4,0,2.8,0,4.2,0c2.6-0.1,4.7-2.1,4.7-4.8
		c0-1.4,0-2.8,0-4.2c0-0.6-0.2-0.7-0.7-0.7C16.6,22.8,14.6,22.7,12.6,22.7z M45.1,30.8c0-4.2,0-8.4,0-12.7c0-1.2-0.6-1.8-1.8-1.9
		c-0.9,0-1.9,0-2.8,0c-1.1,0-1.8,0.6-1.8,1.7c0,8.5,0,17,0,25.5c0,1.1,0.6,1.7,1.7,1.7c0.9,0,1.7,0,2.6,0c1.6,0,2.1-0.5,2.1-2.1
		C45.1,39.1,45.1,35,45.1,30.8z M62,87.1c-1.3-1.8-2-3.7-2.3-5.8c0-0.4-0.1-0.7-0.6-0.7c-6.1,0-12.2,0-18.3,0c-0.3,0-0.6,0-0.6,0.4
		c-0.2,2.2-1,4.1-2.3,6C45.9,87.1,53.9,87.1,62,87.1z M9.7,49.2c0,2.2,0,4.4,0,6.5c0,1.4,1,2.4,2.3,2.4c1.7,0,3.3,0,5,0
		c1.1,0,2-0.8,2.3-1.8c0.3-1-0.2-2.1-1.2-2.6c-0.4-0.2-0.8-0.5-1.3-0.6c-0.6-0.2-0.7-0.6-0.7-1.2c0-3,0-6,0-9c0-0.6-0.1-0.8-0.7-0.8
		c-1.6,0.1-3.3,0.1-4.9,0c-0.7,0-0.8,0.2-0.8,0.8C9.7,45,9.7,47.1,9.7,49.2z"/>
	<path class="st0" d="M17.8,74.2c-1.7,0-1.7,0-1.7-1.7c0-1.5,0-1.5,1.5-1.5c1.7,0,1.7,0,1.7,1.7C19.3,74.3,19.3,74.3,17.8,74.2z"/>
	<path class="st0" d="M25.8,72.6c0,1.7,0,1.7-1.7,1.7c-1.5,0-1.5,0-1.5-1.5c0-1.7,0-1.7,1.7-1.7C25.8,71,25.8,71,25.8,72.6z"/>
	<path class="st0" d="M30.5,74.3c-1.5,0-1.5,0-1.5-1.6c0-1.6,0-1.6,1.7-1.6c1.5,0,1.5,0,1.5,1.6C32.2,74.3,32.2,74.3,30.5,74.3z"/>
	<path class="st0" d="M25.8,54.9c0-1-0.4-2.4,0.1-3c0.5-0.6,1.9-0.2,2.9-0.2c3,0,6,0,9,0c0.7,0,0.9,0.2,0.8,0.8
		c-0.1,0.8,0,1.6,0,2.4C34.3,54.9,30.1,54.9,25.8,54.9z"/>
	<g>
		<path class="st1" d="M48.3,34.8c0-5.6,0-11.3,0-16.9c1.4-1.1,2.9-2.1,4.3-3.2c0.6-0.5,0.9-0.4,1.4,0.1c2.7,3.1,5.4,6.3,8,9.4
			c1,1.1,0.9,1.1,2.1,0.2c5.5-4.7,11-9.3,16.5-13.9c0.7-0.6,0.6-0.9,0-1.4c-1.7-1.6-3.3-3.2-5.1-5c1.6-0.3,2.9-0.5,4.2-0.7
			C86,2.2,92.4,1.2,98.7,0.1c1.2-0.2,1.4-0.1,1.2,0.9c-1.3,7.7-2.6,15.5-3.9,23.4c-1.1-0.7-1.7-1.7-2.7-2.4c-1-1.1-2.1-2.2-3.2-3.2
			c-0.3-0.2-0.5,0.2-0.6,0.3c-2,1.7-3.9,3.5-5.9,5.2c-1.1,1-2.2,1.8-3.2,2.9c-2.3,1.8-4.4,3.7-6.4,5.6c-1.1,0.9-2.2,1.8-3.2,2.8
			c-2.2,1.8-4.3,3.7-6.4,5.7c-0.6,0.5-1.1,1.2-1.7,1.3c-0.6,0.1-0.9-1-1.5-1.4c-2-2.6-4.2-5.1-6.4-7.6c-0.3-0.3-0.5-0.6-0.8-0.9
			c-1.1-1.3-1.1-1.3-2.5-0.3C50.4,33.2,49.4,34,48.3,34.8z"/>
		<path class="st1" d="M25.8,54.9c4.3,0,8.5,0,12.8,0c0,1.1,0,2.2,0,3.2c-4.3,0-8.5,0-12.8,0C25.8,57.1,25.8,56,25.8,54.9z"/>
	</g>
	<path class="st0" d="M25.8,58.2c4.3,0,8.5,0,12.8,0c0,1,0.4,2.3-0.1,3c-0.5,0.6-1.9,0.2-2.9,0.2c-3,0-6,0-9,0
		c-0.6,0-0.9-0.2-0.8-0.8C25.8,59.8,25.8,59,25.8,58.2z"/>
</g>
</svg>
