<?xml version="1.0" encoding="utf-8"?>
<!-- Generator: Adobe Illustrator 19.2.1, SVG Export Plug-In . SVG Version: 6.00 Build 0)  -->
<svg version="1.1" id="Слой_1" xmlns="http://www.w3.org/2000/svg" xmlns:xlink="http://www.w3.org/1999/xlink" x="0px" y="0px"
	 viewBox="0 0 100 100" style="enable-background:new 0 0 100 100;" xml:space="preserve">
<style type="text/css">
	.st0{fill:#333333;}
	.st1{fill:#FFB759;}
</style>
<g>
	<path class="st0" d="M100,50c0,10.6,0,21.2,0,31.8c0,3.4-2,5.4-5.4,5.4c-19.4,0-38.7,0-58.1,0c-0.9,0-1.1,0.3-1.1,1.1
		c0.1,2.3,0,4.6,0,6.9c0,2.8-2.1,4.9-4.9,4.9c-2,0-4.1,0-6.1,0c-3,0-5.1-2.1-5.1-5c0-1.4,0-1.4-1.4-1.4c-3.7,0-7.5,0-11.2,0
		c-2.2,0-3.5-1.3-3.5-3.5c0-1,0-1.9,0-2.9c0-1.9,1.4-3.2,3.3-3.3c1.9,0,3.8,0,5.7,0c0.5,0,0.7-0.1,0.7-0.7c0.1-2.6,0.1-2.6-2.5-2.6
		c-2.3,0-4.6,0-7,0c-2.2,0-3.5-1.3-3.5-3.5c0-0.9,0-1.7,0-2.6C0,72.3,1.3,71,3.5,71c5,0,9.9,0,14.9,0c0.8,0,1-0.3,1-1
		c0-5.2,0-10.3,0-15.5c0-0.6-0.2-0.9-0.8-1.1C8.3,49.4,2.1,42,0.3,31.1C-2,17.3,7.9,3.4,21.6,0.6c11-2.3,22.2,2.2,28.5,11.6
		c0.4,0.6,0.8,0.7,1.5,0.7c14.3,0,28.7,0,43,0c3.5,0,5.4,1.9,5.4,5.4C100,28.9,100,39.4,100,50z M52.4,16.1c0.3,0.8,0.6,1.5,0.8,2.3
		c0.2,0.8,0.6,1,1.4,1c11.3,0,22.6,0,33.9,0c3,0,5,2.1,5.1,5.1c0,1.9,0,3.8,0,5.7c0,3.3-2,5.3-5.3,5.3c-11.2,0-22.4,0-33.7,0
		c-0.7,0-1,0.2-1.3,0.9c-3,8.3-8.7,14-17,16.9c-0.6,0.2-0.9,0.5-0.9,1.2c0,9.5,0,19,0,28.5c0,0.7,0.2,0.9,0.9,0.9
		c19.5,0,38.9,0,58.4,0c1.5,0,2.1-0.5,2.1-2c0-21.2,0-42.4,0-63.6c0-1.6-0.5-2.1-2.1-2.1c-4.1,0-8.3,0-12.4,0
		C72.4,16.1,62.5,16.1,52.4,16.1z M50.3,35.5c-2.2,0-4.1,0-6.1,0c-0.7,0-1,0.2-1.4,0.8c-3.3,5.5-8.2,8.6-14.6,8.8
		C17,45.5,8.5,36.1,9.9,25c1-8.4,8.5-15.2,17-15.3c7.1-0.1,12.4,3,16.1,9.1c0.2,0.3,0.3,0.6,0.8,0.6c2.1,0,4.3,0,6.5,0
		c-0.1-0.2-0.1-0.3-0.1-0.5C46.7,9.7,37.5,3.3,27.8,3.2c-6.6-0.1-12.4,2.2-17.1,6.9C4.8,15.9,2.1,23,3.6,31.2
		c1.9,10.2,8,16.8,18.1,19.6c0.8,0.2,0.9,0.5,0.9,1.3c0,11.3,0,22.7,0,34c0,0.7,0.1,1,1,1c2.6-0.1,5.1-0.1,7.7,0
		c0.8,0,1.1-0.1,1.1-1.1c0-10.9,0-21.8,0-32.8c0-2.1,0-2.1,2.1-2.7C42,48.1,47.3,43.1,50.3,35.5z M50.6,22.6c-8.6,0-17.3,0-25.9,0
		c-1.6,0-2.1,0.5-2.1,2.1c0,1.8,0,3.7,0,5.5c0,1.5,0.5,2.1,2.1,2.1c3.1,0,6.2,0,9.3,0c14.2,0,28.3,0,42.5,0c0.9,0,1-0.2,1-1
		c-0.1-2.6-0.1-5.2,0-7.8c0-0.8-0.2-0.9-0.9-0.9C67.9,22.6,59.3,22.6,50.6,22.6z M39.4,19.3c-3.8-5.5-10.5-7.8-16.6-5.7
		c-6.4,2.2-10.3,8.1-10,14.7c0.4,6.4,5.2,12,11.7,13.3c6.5,1.3,12.4-2.2,14.7-6.2c-0.4,0-0.7,0-1,0c-4.6,0-9.1,0-13.7,0
		c-3.3,0-5.2-2-5.2-5.3c0-1.9,0-3.9,0-5.8c0-2.9,2.1-5,5-5c4.6,0,9.3,0,13.9,0C38.6,19.3,39,19.3,39.4,19.3z M19.4,82.3
		c0-2.5,0-4.9,0-7.4c0-0.7-0.2-0.8-0.8-0.8c-4.3,0-8.6,0-12.9,0c-2.5,0-2.4,0-2.4,2.4c0,0.7,0.2,0.8,0.8,0.8c2.9,0,5.8,0,8.8,0
		c1.9,0,3.3,1.4,3.3,3.3c0,1,0,2.1,0,3.1c0,1.9-1.4,3.2-3.2,3.3c-1.3,0-2.7,0-4,0c-2.4,0-2.4,0-2.4,2.4c0,0.6,0.1,0.8,0.7,0.8
		c3.8,0,7.7,0,11.5,0c0.6,0,0.7-0.2,0.7-0.7C19.3,87.2,19.4,84.8,19.4,82.3z M80.7,27.3c0,1.4,0,2.8,0,4.2c0,0.5,0,0.7,0.6,0.7
		c2.4,0,4.9,0,7.3,0c1.1,0,1.7-0.6,1.7-1.7c0-2.1,0-4.2,0-6.2c0-1.1-0.6-1.7-1.8-1.7c-2.4,0-4.8,0-7.2,0c-0.6,0-0.7,0.2-0.7,0.8
		C80.7,24.6,80.7,26,80.7,27.3z M27.4,90.3c-1.4,0-2.8,0-4.2,0c-0.5,0-0.6,0.1-0.6,0.6c0,1.4,0,2.8,0,4.2c0,1,0.7,1.6,1.7,1.6
		c2.1,0,4.2,0,6.3,0c1,0,1.6-0.6,1.7-1.6c0-1.4,0-2.8,0-4.2c0-0.5-0.2-0.6-0.6-0.6C30.2,90.3,28.8,90.3,27.4,90.3z"/>
	<g>
		<path class="st1" d="M83.9,80.6c-1.1,0-2.2,0-3.2,0c0-1.3,0-2.7,0-4c0-2.5,0-2.5-2.5-2.4c-0.6,0-0.7,0.2-0.7,0.7
			c0,1.9,0,3.8,0,5.7c-1.1,0-2.2,0-3.2,0c0-4.6,0-9.2,0-13.8c0-2.4,0-2.3-2.4-2.3c-0.7,0-0.8,0.2-0.8,0.8c0,5.1,0,10.2,0,15.3
			c-1.1,0-2.2,0-3.2,0c0-5.7,0-11.3,0-17c0-2.4,0-2.3-2.4-2.3c-0.7,0-0.8,0.2-0.8,0.8c0,6.2,0,12.3,0,18.5c-1.1,0-2.2,0-3.2,0
			c0-3.5,0-7,0-10.5c0-2.5,0-2.4-2.4-2.4c-0.7,0-0.8,0.2-0.8,0.8c0,4,0,8,0,12.1c-1.1,0-2.2,0-3.2,0c0-2.4,0-4.8,0-7.2
			c0-2.5,0-2.4-2.4-2.4c-0.7,0-0.8,0.2-0.8,0.8c0,2.9,0,5.9,0,8.8c-1.1,0-2.2,0-3.2,0c0-5.7,0-11.3,0-17c0-2.4,0-2.3-2.4-2.3
			c-0.7,0-0.8,0.2-0.8,0.8c0,6.2,0,12.3,0,18.5c-1.9,0-3.8,0-5.7,0c-0.6,0-0.7-0.2-0.7-0.8c0-8.1,0-16.2,0-24.3c0-0.9,0.5-0.8,1-0.8
			c14.7,0,29.4,0,44.1,0c2.9,0,5.8,0,8.7,0c0.8,0,1.1,0.2,1.1,1.1c0,7.9,0,15.9,0,23.8c0,0.7-0.1,1-0.9,1c-1.8-0.1-3.7,0-5.5,0
			c0-3.5,0-7,0-10.6c0-2.4,0-2.3-2.4-2.3c-0.7,0-0.8,0.2-0.8,0.8C83.9,72.6,83.9,76.6,83.9,80.6z"/>
		<path class="st1" d="M56.5,45.1c0-1.1,0-2.2,0-3.2c1,0,2.4,0.4,3-0.2c0.7-0.6,0.2-2,0.2-3c1.1,0,2.2,0,3.2,0c0,0.8,0,1.5,0,2.3
			c-0.1,0.7,0.1,0.9,0.9,0.9c9.9,0,19.9,0,29.8,0c0,1.1,0,2.2,0,3.2C81.2,45.1,68.8,45.1,56.5,45.1z"/>
	</g>
	<path class="st0" d="M56.5,45.1c12.3,0,24.7,0,37,0c0,1,0.4,2.4-0.1,3c-0.5,0.6-1.9,0.2-2.9,0.2c-11,0-22,0-33.1,0
		c-0.8,0-1.1-0.2-1-1C56.5,46.6,56.5,45.9,56.5,45.1z"/>
	<path class="st0" d="M93.5,41.9c-9.9,0-19.9,0-29.8,0c-0.7,0-0.9-0.2-0.9-0.9c0.1-0.8,0-1.5,0-2.3c8.3,0,16.6,0,24.9,0
		c1.7,0,3.4,0,5,0c0.6,0,0.8,0.1,0.7,0.7C93.5,40.2,93.6,41.1,93.5,41.9z"/>
	<path class="st0" d="M45.2,80.6c0-6.2,0-12.3,0-18.5c0-0.6,0.2-0.8,0.8-0.8c2.4,0,2.4,0,2.4,2.3c0,5.7,0,11.3,0,17
		C47.3,80.6,46.3,80.6,45.2,80.6z"/>
	<path class="st0" d="M64.5,80.6c0-6.2,0-12.3,0-18.5c0-0.6,0.2-0.8,0.8-0.8c2.4,0,2.4,0,2.4,2.3c0,5.7,0,11.3,0,17
		C66.7,80.6,65.6,80.6,64.5,80.6z"/>
	<path class="st0" d="M71,80.6c0-5.1,0-10.2,0-15.3c0-0.6,0.2-0.8,0.8-0.8c2.4,0,2.4,0,2.4,2.3c0,4.6,0,9.2,0,13.8
		C73.1,80.6,72.1,80.6,71,80.6z"/>
	<path class="st0" d="M58.1,80.6c0-4,0-8,0-12.1c0-0.7,0.2-0.8,0.8-0.8c2.4,0,2.4,0,2.4,2.4c0,3.5,0,7,0,10.5
		C60.2,80.6,59.2,80.6,58.1,80.6z"/>
	<path class="st0" d="M83.9,80.6c0-4,0-8,0-12.1c0-0.7,0.2-0.8,0.8-0.8c2.4,0,2.4,0,2.4,2.3c0,3.5,0,7,0,10.6
		C86,80.6,85,80.6,83.9,80.6z"/>
	<path class="st0" d="M51.6,80.6c0-2.9,0-5.9,0-8.8c0-0.7,0.2-0.8,0.8-0.8c2.4,0,2.4,0,2.4,2.4c0,2.4,0,4.8,0,7.2
		C53.8,80.6,52.7,80.6,51.6,80.6z"/>
	<path class="st0" d="M77.5,80.6c0-1.9,0-3.8,0-5.7c0-0.6,0.2-0.7,0.7-0.7c2.5,0,2.5-0.1,2.5,2.4c0,1.3,0,2.7,0,4
		C79.6,80.6,78.5,80.6,77.5,80.6z"/>
	<path class="st0" d="M59.7,38.7c-0.1,1,0.5,2.5-0.2,3c-0.6,0.5-2,0.1-3,0.2c0-1.1-0.5-2.5,0.2-3.1C57.3,38.3,58.7,38.7,59.7,38.7z"
		/>
	<path class="st0" d="M29,65.4c0,3.9,0,7.7,0,11.6c0,1.3-0.6,2-1.6,2c-1,0-1.6-0.7-1.6-2c0-7.8,0-15.7,0-23.5c0-1.3,0.6-2,1.6-2
		c1,0,1.6,0.7,1.6,2C29,57.6,29,61.5,29,65.4z"/>
	<path class="st0" d="M29,83.8c0,0.9-0.7,1.6-1.6,1.6c-0.9,0-1.6-0.7-1.7-1.5c0-0.9,0.7-1.7,1.6-1.7C28.3,82.2,29,83,29,83.8z"/>
	<path class="st0" d="M25.8,27.5c0-1.7,0-1.7,1.7-1.7c1.5,0,1.5,0,1.5,1.5c0,1.7,0,1.7-1.7,1.7C25.8,29,25.8,29,25.8,27.5z"/>
	<path class="st0" d="M33.8,29c-1.6,0-1.6,0-1.6-1.6c0-1.7,0-1.7,1.7-1.7c1.6,0,1.6,0,1.6,1.6C35.5,29,35.5,29,33.8,29z"/>
	<path class="st0" d="M42,27.4c0,1.6,0,1.6-1.6,1.6c-1.6,0-1.6,0-1.6-1.6c0-1.6,0-1.6,1.6-1.6C42,25.8,42,25.8,42,27.4z"/>
	<path class="st0" d="M46.7,29c-1.6,0-1.6,0-1.6-1.6c0-1.7,0-1.7,1.7-1.7c1.6,0,1.6,0,1.6,1.6C48.4,29,48.4,29,46.7,29z"/>
	<path class="st0" d="M54.9,27.4c0,1.6,0,1.6-1.6,1.6c-1.7,0-1.7,0-1.7-1.7c0-1.6,0-1.6,1.6-1.6C54.9,25.8,54.9,25.8,54.9,27.4z"/>
	<path class="st0" d="M58.1,27.3c0-1.5,0-1.5,1.5-1.5c1.7,0,1.7,0,1.7,1.7c0,1.5,0,1.5-1.5,1.5C58.1,29,58.1,29,58.1,27.3z"/>
	<path class="st0" d="M66.2,25.8c1.5,0,1.5,0,1.5,1.6c0,1.6,0,1.6-1.6,1.6c-1.6,0-1.6,0-1.6-1.6C64.5,25.8,64.5,25.8,66.2,25.8z"/>
	<path class="st0" d="M72.6,25.8c1.6,0,1.6,0,1.6,1.6c0,1.6,0,1.6-1.6,1.6C71,29,71,29,71,27.4C71,25.8,71,25.8,72.6,25.8z"/>
</g>
</svg>
