<?xml version="1.0" encoding="utf-8"?>
<!-- Generator: Adobe Illustrator 19.2.1, SVG Export Plug-In . SVG Version: 6.00 Build 0)  -->
<svg version="1.1" id="Слой_1" xmlns="http://www.w3.org/2000/svg" xmlns:xlink="http://www.w3.org/1999/xlink" x="0px" y="0px"
	 viewBox="0 0 20 20" style="enable-background:new 0 0 20 20;" xml:space="preserve">
<style type="text/css">
	.st0{fill:#712076;}
</style>
<path class="st0" d="M10.7,14.8c-0.8,0.7-1.5,1.5-2.3,2.2c-0.3,0.3-0.6,0.4-0.9,0.4S7.1,17.3,7,17c-0.6-1.8-1.2-3.6-1.7-5.4
	c-0.1-0.2-0.1-0.3-0.3-0.3c-1.4-0.4-2.7-0.8-4.1-1.3C0.7,9.9,0.5,9.8,0.3,9.7C0,9.5,0,9.2,0.2,9S0.7,8.6,1,8.5
	c1.7-0.7,3.3-1.3,5-1.9c4.2-1.6,8.5-3.3,12.7-4.9c0.8-0.3,1.4,0.1,1.3,1c-0.1,0.6-0.2,1.1-0.3,1.7c-0.9,4.3-1.8,8.7-2.8,13
	c-0.2,1-0.9,1.3-1.8,0.7c-1.4-1-2.8-2.1-4.3-3.1C10.8,14.9,10.7,14.8,10.7,14.8z M7.5,16.1L7.5,16.1C7.6,16,7.6,16,7.6,16
	c0.1-1,0.2-2,0.3-3c0-0.2,0.1-0.4,0.3-0.5c1.3-1.2,2.6-2.3,3.9-3.5c1.4-1.3,2.9-2.6,4.3-3.9c0.1-0.1,0.1-0.2,0.2-0.3
	c-0.1,0-0.3-0.1-0.4,0c-0.2,0-0.3,0.1-0.5,0.2c-3.2,2-6.4,4-9.6,6c-0.2,0.1-0.2,0.2-0.1,0.4c0.2,0.7,0.4,1.4,0.7,2
	C6.9,14.3,7.2,15.2,7.5,16.1z"/>
</svg>
