<?xml version="1.0" encoding="utf-8"?>
<!-- Generator: Adobe Illustrator 19.2.1, SVG Export Plug-In . SVG Version: 6.00 Build 0)  -->
<svg version="1.1" id="Слой_1" xmlns="http://www.w3.org/2000/svg" xmlns:xlink="http://www.w3.org/1999/xlink" x="0px" y="0px"
	 viewBox="0 0 20 20" style="enable-background:new 0 0 20 20;" xml:space="preserve">
<style type="text/css">
	.st0{fill:#FFFFFF;}
</style>
<path class="st0" d="M12.6,3.4c1,0,2.3,0,2.3,0V0c0,0-1.4,0-3.2,0C9.8,0,7.4,1.2,7.4,4.6c0,0.6,0,1.6,0,2.7H4.3v3.5h3.1
	c0,4.4,0,9.1,0,9.1h1.4h1.1H11c0,0,0-4.9,0-9.1h3.1l0.5-3.5H11c0-1.2,0-2,0-2.2C11,4,11.6,3.4,12.6,3.4z"/>
</svg>
